<svg width="943" height="446" viewBox="0 0 943 446" fill="none" xmlns="http://www.w3.org/2000/svg">
<rect x="55.5" y="47.5" width="886" height="373" fill="white" stroke="#E0E0E0"/>
<path d="M44 416.159C43.1439 416.159 42.4148 415.926 41.8125 415.46C41.2102 414.991 40.75 414.311 40.4318 413.42C40.1136 412.527 39.9545 411.447 39.9545 410.182C39.9545 408.924 40.1136 407.85 40.4318 406.96C40.7538 406.066 41.2159 405.384 41.8182 404.915C42.4242 404.441 43.1515 404.205 44 404.205C44.8485 404.205 45.5739 404.441 46.1761 404.915C46.7822 405.384 47.2443 406.066 47.5625 406.96C47.8845 407.85 48.0455 408.924 48.0455 410.182C48.0455 411.447 47.8864 412.527 47.5682 413.42C47.25 414.311 46.7898 414.991 46.1875 415.46C45.5852 415.926 44.8561 416.159 44 416.159ZM44 414.909C44.8485 414.909 45.5076 414.5 45.9773 413.682C46.447 412.864 46.6818 411.697 46.6818 410.182C46.6818 409.174 46.5739 408.316 46.358 407.608C46.1458 406.9 45.839 406.36 45.4375 405.989C45.0398 405.617 44.5606 405.432 44 405.432C43.1591 405.432 42.5019 405.847 42.0284 406.676C41.5549 407.502 41.3182 408.67 41.3182 410.182C41.3182 411.189 41.4242 412.045 41.6364 412.75C41.8485 413.455 42.1534 413.991 42.5511 414.358C42.9527 414.725 43.4356 414.909 44 414.909Z" fill="black"/>
<path d="M58.706 426.364H60.3878L64.3423 436.023H64.4787L68.4332 426.364H70.1151V438H68.7969V429.159H68.6832L65.0469 438H63.7741L60.1378 429.159H60.0241V438H58.706V426.364ZM75.3267 438.205C74.7737 438.205 74.2718 438.1 73.821 437.892C73.3703 437.68 73.0123 437.375 72.7472 436.977C72.482 436.576 72.3494 436.091 72.3494 435.523C72.3494 435.023 72.4479 434.617 72.6449 434.307C72.8419 433.992 73.1051 433.746 73.4347 433.568C73.7642 433.39 74.1278 433.258 74.5256 433.17C74.9271 433.08 75.3305 433.008 75.7358 432.955C76.2661 432.886 76.696 432.835 77.0256 432.801C77.3589 432.763 77.6013 432.701 77.7528 432.614C77.9081 432.527 77.9858 432.375 77.9858 432.159V432.114C77.9858 431.553 77.8324 431.117 77.5256 430.807C77.2225 430.496 76.7623 430.341 76.1449 430.341C75.5047 430.341 75.0028 430.481 74.6392 430.761C74.2756 431.042 74.0199 431.341 73.8722 431.659L72.5994 431.205C72.8267 430.674 73.1297 430.261 73.5085 429.966C73.8911 429.667 74.3078 429.458 74.7585 429.341C75.2131 429.22 75.66 429.159 76.0994 429.159C76.3797 429.159 76.7017 429.193 77.0653 429.261C77.4328 429.326 77.7869 429.46 78.1278 429.665C78.4725 429.869 78.7585 430.178 78.9858 430.591C79.2131 431.004 79.3267 431.557 79.3267 432.25V438H77.9858V436.818H77.9176C77.8267 437.008 77.6752 437.21 77.4631 437.426C77.2509 437.642 76.9688 437.826 76.6165 437.977C76.2642 438.129 75.8343 438.205 75.3267 438.205ZM75.5312 437C76.0616 437 76.5085 436.896 76.8722 436.688C77.2396 436.479 77.5161 436.21 77.7017 435.881C77.8911 435.551 77.9858 435.205 77.9858 434.841V433.614C77.929 433.682 77.804 433.744 77.6108 433.801C77.4214 433.854 77.2017 433.902 76.9517 433.943C76.7055 433.981 76.465 434.015 76.2301 434.045C75.9991 434.072 75.8116 434.095 75.6676 434.114C75.3191 434.159 74.9934 434.233 74.6903 434.335C74.3911 434.434 74.1487 434.583 73.9631 434.784C73.7813 434.981 73.6903 435.25 73.6903 435.591C73.6903 436.057 73.8627 436.409 74.2074 436.648C74.5559 436.883 74.9972 437 75.5312 437ZM81.7741 441.273V429.273H83.0696V430.659H83.2287C83.3272 430.508 83.4635 430.314 83.6378 430.08C83.8158 429.841 84.0696 429.629 84.3991 429.443C84.7325 429.254 85.1832 429.159 85.7514 429.159C86.4863 429.159 87.134 429.343 87.6946 429.71C88.2552 430.078 88.6927 430.598 89.0071 431.273C89.3215 431.947 89.4787 432.742 89.4787 433.659C89.4787 434.583 89.3215 435.384 89.0071 436.062C88.6927 436.737 88.2571 437.259 87.7003 437.631C87.1435 437.998 86.5014 438.182 85.7741 438.182C85.2135 438.182 84.7647 438.089 84.4276 437.903C84.0904 437.714 83.831 437.5 83.6491 437.261C83.4673 437.019 83.3272 436.818 83.2287 436.659H83.1151V441.273H81.7741ZM83.0923 433.636C83.0923 434.295 83.1889 434.877 83.3821 435.381C83.5753 435.881 83.8575 436.273 84.2287 436.557C84.5999 436.837 85.0545 436.977 85.5923 436.977C86.1529 436.977 86.6207 436.83 86.9957 436.534C87.3745 436.235 87.6586 435.833 87.848 435.33C88.0412 434.822 88.1378 434.258 88.1378 433.636C88.1378 433.023 88.0431 432.47 87.8537 431.977C87.6681 431.481 87.3859 431.089 87.0071 430.801C86.6321 430.509 86.1605 430.364 85.5923 430.364C85.0469 430.364 84.5885 430.502 84.2173 430.778C83.8461 431.051 83.5658 431.434 83.3764 431.926C83.187 432.415 83.0923 432.985 83.0923 433.636ZM90.3835 430.523V429.273H97.4744V430.523H94.6108V438H93.2699V430.523H90.3835ZM107.999 426.364V438H106.589V427.841H106.521L103.68 429.727V428.295L106.589 426.364H107.999ZM115.072 438.159C114.292 438.159 113.603 438.021 113.004 437.744C112.41 437.464 111.946 437.08 111.612 436.591C111.279 436.098 111.114 435.538 111.118 434.909C111.114 434.417 111.211 433.962 111.408 433.545C111.605 433.125 111.874 432.775 112.214 432.494C112.559 432.21 112.944 432.03 113.368 431.955V431.886C112.811 431.742 112.368 431.43 112.038 430.949C111.709 430.464 111.546 429.913 111.55 429.295C111.546 428.705 111.696 428.176 111.999 427.71C112.302 427.244 112.718 426.877 113.249 426.608C113.783 426.339 114.391 426.205 115.072 426.205C115.747 426.205 116.349 426.339 116.879 426.608C117.41 426.877 117.826 427.244 118.129 427.71C118.436 428.176 118.591 428.705 118.595 429.295C118.591 429.913 118.423 430.464 118.089 430.949C117.76 431.43 117.322 431.742 116.777 431.886V431.955C117.197 432.03 117.576 432.21 117.913 432.494C118.25 432.775 118.519 433.125 118.72 433.545C118.921 433.962 119.023 434.417 119.027 434.909C119.023 435.538 118.853 436.098 118.516 436.591C118.182 437.08 117.718 437.464 117.124 437.744C116.533 438.021 115.849 438.159 115.072 438.159ZM115.072 436.909C115.599 436.909 116.054 436.824 116.436 436.653C116.819 436.483 117.114 436.242 117.322 435.932C117.531 435.621 117.637 435.258 117.641 434.841C117.637 434.402 117.523 434.013 117.3 433.676C117.076 433.339 116.771 433.074 116.385 432.881C116.002 432.687 115.565 432.591 115.072 432.591C114.576 432.591 114.133 432.687 113.743 432.881C113.357 433.074 113.052 433.339 112.828 433.676C112.608 434.013 112.5 434.402 112.504 434.841C112.5 435.258 112.601 435.621 112.805 435.932C113.014 436.242 113.311 436.483 113.697 436.653C114.084 436.824 114.542 436.909 115.072 436.909ZM115.072 431.386C115.489 431.386 115.858 431.303 116.18 431.136C116.506 430.97 116.762 430.737 116.947 430.438C117.133 430.138 117.228 429.788 117.232 429.386C117.228 428.992 117.135 428.65 116.953 428.358C116.771 428.062 116.519 427.835 116.197 427.676C115.875 427.513 115.5 427.432 115.072 427.432C114.637 427.432 114.256 427.513 113.93 427.676C113.605 427.835 113.353 428.062 113.175 428.358C112.997 428.65 112.91 428.992 112.913 429.386C112.91 429.788 112.999 430.138 113.18 430.438C113.366 430.737 113.622 430.97 113.947 431.136C114.273 431.303 114.648 431.386 115.072 431.386Z" fill="black"/>
<path d="M165.605 438H164.128L168.401 426.364H169.855L174.128 438H172.651L169.173 428.205H169.082L165.605 438ZM166.151 433.455H172.105V434.705H166.151V433.455ZM175.759 438V429.273H182.622V438H181.281V430.523H177.099V438H175.759ZM185.071 441.273V429.273H186.366V430.659H186.526C186.624 430.508 186.76 430.314 186.935 430.08C187.113 429.841 187.366 429.629 187.696 429.443C188.029 429.254 188.48 429.159 189.048 429.159C189.783 429.159 190.431 429.343 190.991 429.71C191.552 430.078 191.99 430.598 192.304 431.273C192.618 431.947 192.776 432.742 192.776 433.659C192.776 434.583 192.618 435.384 192.304 436.062C191.99 436.737 191.554 437.259 190.997 437.631C190.44 437.998 189.798 438.182 189.071 438.182C188.51 438.182 188.062 438.089 187.724 437.903C187.387 437.714 187.128 437.5 186.946 437.261C186.764 437.019 186.624 436.818 186.526 436.659H186.412V441.273H185.071ZM186.389 433.636C186.389 434.295 186.486 434.877 186.679 435.381C186.872 435.881 187.154 436.273 187.526 436.557C187.897 436.837 188.351 436.977 188.889 436.977C189.45 436.977 189.918 436.83 190.293 436.534C190.671 436.235 190.955 435.833 191.145 435.33C191.338 434.822 191.435 434.258 191.435 433.636C191.435 433.023 191.34 432.47 191.151 431.977C190.965 431.481 190.683 431.089 190.304 430.801C189.929 430.509 189.457 430.364 188.889 430.364C188.344 430.364 187.885 430.502 187.514 430.778C187.143 431.051 186.863 431.434 186.673 431.926C186.484 432.415 186.389 432.985 186.389 433.636ZM198.48 438.182C197.639 438.182 196.914 437.996 196.304 437.625C195.698 437.25 195.23 436.727 194.901 436.057C194.575 435.383 194.412 434.598 194.412 433.705C194.412 432.811 194.575 432.023 194.901 431.341C195.23 430.655 195.688 430.121 196.276 429.739C196.866 429.352 197.556 429.159 198.344 429.159C198.798 429.159 199.247 429.235 199.69 429.386C200.134 429.538 200.537 429.784 200.901 430.125C201.264 430.462 201.554 430.909 201.77 431.466C201.986 432.023 202.094 432.708 202.094 433.523V434.091H195.366V432.932H200.73C200.73 432.439 200.632 432 200.435 431.614C200.241 431.227 199.965 430.922 199.605 430.699C199.249 430.475 198.829 430.364 198.344 430.364C197.81 430.364 197.348 430.496 196.957 430.761C196.571 431.023 196.274 431.364 196.065 431.784C195.857 432.205 195.753 432.655 195.753 433.136V433.909C195.753 434.568 195.866 435.127 196.094 435.585C196.325 436.04 196.645 436.386 197.054 436.625C197.463 436.86 197.938 436.977 198.48 436.977C198.832 436.977 199.151 436.928 199.435 436.83C199.723 436.727 199.971 436.576 200.179 436.375C200.387 436.17 200.548 435.917 200.662 435.614L201.957 435.977C201.821 436.417 201.592 436.803 201.27 437.136C200.948 437.466 200.55 437.723 200.077 437.909C199.603 438.091 199.071 438.182 198.48 438.182ZM203.361 438V436.75H203.679C203.94 436.75 204.158 436.699 204.332 436.597C204.507 436.491 204.647 436.307 204.753 436.045C204.863 435.78 204.946 435.413 205.003 434.943C205.063 434.47 205.107 433.867 205.134 433.136L205.293 429.273H211.111V438H209.77V430.523H206.565L206.429 433.636C206.399 434.352 206.334 434.983 206.236 435.528C206.141 436.07 205.995 436.525 205.798 436.892C205.605 437.259 205.348 437.536 205.026 437.722C204.704 437.907 204.3 438 203.815 438H203.361ZM214.73 432.432H217.23C218.253 432.432 219.035 432.691 219.577 433.21C220.118 433.729 220.389 434.386 220.389 435.182C220.389 435.705 220.268 436.18 220.026 436.608C219.783 437.032 219.427 437.371 218.957 437.625C218.488 437.875 217.912 438 217.23 438H213.571V429.273H214.912V436.75H217.23C217.76 436.75 218.196 436.61 218.537 436.33C218.878 436.049 219.048 435.689 219.048 435.25C219.048 434.788 218.878 434.411 218.537 434.119C218.196 433.828 217.76 433.682 217.23 433.682H214.73V432.432ZM230.999 426.364V438H229.589V427.841H229.521L226.68 429.727V428.295L229.589 426.364H230.999ZM238.072 438.159C237.292 438.159 236.603 438.021 236.004 437.744C235.41 437.464 234.946 437.08 234.612 436.591C234.279 436.098 234.114 435.538 234.118 434.909C234.114 434.417 234.211 433.962 234.408 433.545C234.605 433.125 234.874 432.775 235.214 432.494C235.559 432.21 235.944 432.03 236.368 431.955V431.886C235.811 431.742 235.368 431.43 235.038 430.949C234.709 430.464 234.546 429.913 234.55 429.295C234.546 428.705 234.696 428.176 234.999 427.71C235.302 427.244 235.718 426.877 236.249 426.608C236.783 426.339 237.391 426.205 238.072 426.205C238.747 426.205 239.349 426.339 239.879 426.608C240.41 426.877 240.826 427.244 241.129 427.71C241.436 428.176 241.591 428.705 241.595 429.295C241.591 429.913 241.423 430.464 241.089 430.949C240.76 431.43 240.322 431.742 239.777 431.886V431.955C240.197 432.03 240.576 432.21 240.913 432.494C241.25 432.775 241.519 433.125 241.72 433.545C241.921 433.962 242.023 434.417 242.027 434.909C242.023 435.538 241.853 436.098 241.516 436.591C241.182 437.08 240.718 437.464 240.124 437.744C239.533 438.021 238.849 438.159 238.072 438.159ZM238.072 436.909C238.599 436.909 239.054 436.824 239.436 436.653C239.819 436.483 240.114 436.242 240.322 435.932C240.531 435.621 240.637 435.258 240.641 434.841C240.637 434.402 240.523 434.013 240.3 433.676C240.076 433.339 239.771 433.074 239.385 432.881C239.002 432.687 238.565 432.591 238.072 432.591C237.576 432.591 237.133 432.687 236.743 432.881C236.357 433.074 236.052 433.339 235.828 433.676C235.608 434.013 235.5 434.402 235.504 434.841C235.5 435.258 235.601 435.621 235.805 435.932C236.014 436.242 236.311 436.483 236.697 436.653C237.084 436.824 237.542 436.909 238.072 436.909ZM238.072 431.386C238.489 431.386 238.858 431.303 239.18 431.136C239.506 430.97 239.762 430.737 239.947 430.438C240.133 430.138 240.228 429.788 240.232 429.386C240.228 428.992 240.135 428.65 239.953 428.358C239.771 428.062 239.519 427.835 239.197 427.676C238.875 427.513 238.5 427.432 238.072 427.432C237.637 427.432 237.256 427.513 236.93 427.676C236.605 427.835 236.353 428.062 236.175 428.358C235.997 428.65 235.91 428.992 235.913 429.386C235.91 429.788 235.999 430.138 236.18 430.438C236.366 430.737 236.622 430.97 236.947 431.136C237.273 431.303 237.648 431.386 238.072 431.386Z" fill="black"/>
<path d="M285.815 426.364H287.497L291.452 436.023H291.588L295.543 426.364H297.224V438H295.906V429.159H295.793L292.156 438H290.884L287.247 429.159H287.134V438H285.815V426.364ZM302.436 438.205C301.883 438.205 301.381 438.1 300.93 437.892C300.48 437.68 300.122 437.375 299.857 436.977C299.591 436.576 299.459 436.091 299.459 435.523C299.459 435.023 299.557 434.617 299.754 434.307C299.951 433.992 300.214 433.746 300.544 433.568C300.874 433.39 301.237 433.258 301.635 433.17C302.036 433.08 302.44 433.008 302.845 432.955C303.375 432.886 303.805 432.835 304.135 432.801C304.468 432.763 304.711 432.701 304.862 432.614C305.018 432.527 305.095 432.375 305.095 432.159V432.114C305.095 431.553 304.942 431.117 304.635 430.807C304.332 430.496 303.872 430.341 303.254 430.341C302.614 430.341 302.112 430.481 301.749 430.761C301.385 431.042 301.129 431.341 300.982 431.659L299.709 431.205C299.936 430.674 300.239 430.261 300.618 429.966C301 429.667 301.417 429.458 301.868 429.341C302.322 429.22 302.769 429.159 303.209 429.159C303.489 429.159 303.811 429.193 304.175 429.261C304.542 429.326 304.896 429.46 305.237 429.665C305.582 429.869 305.868 430.178 306.095 430.591C306.322 431.004 306.436 431.557 306.436 432.25V438H305.095V436.818H305.027C304.936 437.008 304.785 437.21 304.572 437.426C304.36 437.642 304.078 437.826 303.726 437.977C303.374 438.129 302.944 438.205 302.436 438.205ZM302.641 437C303.171 437 303.618 436.896 303.982 436.688C304.349 436.479 304.625 436.21 304.811 435.881C305 435.551 305.095 435.205 305.095 434.841V433.614C305.038 433.682 304.913 433.744 304.72 433.801C304.531 433.854 304.311 433.902 304.061 433.943C303.815 433.981 303.574 434.015 303.339 434.045C303.108 434.072 302.921 434.095 302.777 434.114C302.429 434.159 302.103 434.233 301.8 434.335C301.5 434.434 301.258 434.583 301.072 434.784C300.891 434.981 300.8 435.25 300.8 435.591C300.8 436.057 300.972 436.409 301.317 436.648C301.665 436.883 302.107 437 302.641 437ZM310.224 436.023L314.429 429.273H315.974V438H314.634V431.25L310.452 438H308.884V429.273H310.224V436.023ZM313.543 426.364H314.793C314.793 426.977 314.58 427.479 314.156 427.869C313.732 428.259 313.156 428.455 312.429 428.455C311.713 428.455 311.143 428.259 310.719 427.869C310.298 427.479 310.088 426.977 310.088 426.364H311.338C311.338 426.659 311.42 426.919 311.582 427.142C311.749 427.366 312.031 427.477 312.429 427.477C312.827 427.477 313.111 427.366 313.281 427.142C313.455 426.919 313.543 426.659 313.543 426.364ZM326.999 426.364V438H325.589V427.841H325.521L322.68 429.727V428.295L325.589 426.364H326.999ZM334.072 438.159C333.292 438.159 332.603 438.021 332.004 437.744C331.41 437.464 330.946 437.08 330.612 436.591C330.279 436.098 330.114 435.538 330.118 434.909C330.114 434.417 330.211 433.962 330.408 433.545C330.605 433.125 330.874 432.775 331.214 432.494C331.559 432.21 331.944 432.03 332.368 431.955V431.886C331.811 431.742 331.368 431.43 331.038 430.949C330.709 430.464 330.546 429.913 330.55 429.295C330.546 428.705 330.696 428.176 330.999 427.71C331.302 427.244 331.718 426.877 332.249 426.608C332.783 426.339 333.391 426.205 334.072 426.205C334.747 426.205 335.349 426.339 335.879 426.608C336.41 426.877 336.826 427.244 337.129 427.71C337.436 428.176 337.591 428.705 337.595 429.295C337.591 429.913 337.423 430.464 337.089 430.949C336.76 431.43 336.322 431.742 335.777 431.886V431.955C336.197 432.03 336.576 432.21 336.913 432.494C337.25 432.775 337.519 433.125 337.72 433.545C337.921 433.962 338.023 434.417 338.027 434.909C338.023 435.538 337.853 436.098 337.516 436.591C337.182 437.08 336.718 437.464 336.124 437.744C335.533 438.021 334.849 438.159 334.072 438.159ZM334.072 436.909C334.599 436.909 335.054 436.824 335.436 436.653C335.819 436.483 336.114 436.242 336.322 435.932C336.531 435.621 336.637 435.258 336.641 434.841C336.637 434.402 336.523 434.013 336.3 433.676C336.076 433.339 335.771 433.074 335.385 432.881C335.002 432.687 334.565 432.591 334.072 432.591C333.576 432.591 333.133 432.687 332.743 432.881C332.357 433.074 332.052 433.339 331.828 433.676C331.608 434.013 331.5 434.402 331.504 434.841C331.5 435.258 331.601 435.621 331.805 435.932C332.014 436.242 332.311 436.483 332.697 436.653C333.084 436.824 333.542 436.909 334.072 436.909ZM334.072 431.386C334.489 431.386 334.858 431.303 335.18 431.136C335.506 430.97 335.762 430.737 335.947 430.438C336.133 430.138 336.228 429.788 336.232 429.386C336.228 428.992 336.135 428.65 335.953 428.358C335.771 428.062 335.519 427.835 335.197 427.676C334.875 427.513 334.5 427.432 334.072 427.432C333.637 427.432 333.256 427.513 332.93 427.676C332.605 427.835 332.353 428.062 332.175 428.358C331.997 428.65 331.91 428.992 331.913 429.386C331.91 429.788 331.999 430.138 332.18 430.438C332.366 430.737 332.622 430.97 332.947 431.136C333.273 431.303 333.648 431.386 334.072 431.386Z" fill="black"/>
<path d="M382.393 426.364H383.78V435.523H383.893L390.257 426.364H391.621V438H390.212V428.864H390.098L383.757 438H382.393V426.364ZM398.44 433.091V434.341H393.827V433.091H398.44ZM394.963 429.273V438H393.622V429.273H394.963ZM401.122 438.182C400.334 438.182 399.643 437.994 399.048 437.619C398.457 437.244 397.995 436.72 397.662 436.045C397.332 435.371 397.168 434.583 397.168 433.682C397.168 432.773 397.332 431.979 397.662 431.301C397.995 430.623 398.457 430.097 399.048 429.722C399.643 429.347 400.334 429.159 401.122 429.159C401.91 429.159 402.599 429.347 403.19 429.722C403.785 430.097 404.247 430.623 404.577 431.301C404.91 431.979 405.077 432.773 405.077 433.682C405.077 434.583 404.91 435.371 404.577 436.045C404.247 436.72 403.785 437.244 403.19 437.619C402.599 437.994 401.91 438.182 401.122 438.182ZM401.122 436.977C401.721 436.977 402.213 436.824 402.599 436.517C402.986 436.21 403.272 435.807 403.457 435.307C403.643 434.807 403.736 434.265 403.736 433.682C403.736 433.098 403.643 432.555 403.457 432.051C403.272 431.547 402.986 431.14 402.599 430.83C402.213 430.519 401.721 430.364 401.122 430.364C400.524 430.364 400.031 430.519 399.645 430.83C399.259 431.14 398.973 431.547 398.787 432.051C398.601 432.555 398.509 433.098 398.509 433.682C398.509 434.265 398.601 434.807 398.787 435.307C398.973 435.807 399.259 436.21 399.645 436.517C400.031 436.824 400.524 436.977 401.122 436.977ZM413.099 433.023V434.273H408.281V433.023H413.099ZM408.599 429.273V438H407.259V429.273H408.599ZM414.122 429.273V438H412.781V429.273H414.122ZM417.73 432.432H420.23C421.253 432.432 422.035 432.691 422.577 433.21C423.118 433.729 423.389 434.386 423.389 435.182C423.389 435.705 423.268 436.18 423.026 436.608C422.783 437.032 422.427 437.371 421.957 437.625C421.488 437.875 420.912 438 420.23 438H416.571V429.273H417.912V436.75H420.23C420.76 436.75 421.196 436.61 421.537 436.33C421.878 436.049 422.048 435.689 422.048 435.25C422.048 434.788 421.878 434.411 421.537 434.119C421.196 433.828 420.76 433.682 420.23 433.682H417.73V432.432ZM433.999 426.364V438H432.589V427.841H432.521L429.68 429.727V428.295L432.589 426.364H433.999ZM441.072 438.159C440.292 438.159 439.603 438.021 439.004 437.744C438.41 437.464 437.946 437.08 437.612 436.591C437.279 436.098 437.114 435.538 437.118 434.909C437.114 434.417 437.211 433.962 437.408 433.545C437.605 433.125 437.874 432.775 438.214 432.494C438.559 432.21 438.944 432.03 439.368 431.955V431.886C438.811 431.742 438.368 431.43 438.038 430.949C437.709 430.464 437.546 429.913 437.55 429.295C437.546 428.705 437.696 428.176 437.999 427.71C438.302 427.244 438.718 426.877 439.249 426.608C439.783 426.339 440.391 426.205 441.072 426.205C441.747 426.205 442.349 426.339 442.879 426.608C443.41 426.877 443.826 427.244 444.129 427.71C444.436 428.176 444.591 428.705 444.595 429.295C444.591 429.913 444.423 430.464 444.089 430.949C443.76 431.43 443.322 431.742 442.777 431.886V431.955C443.197 432.03 443.576 432.21 443.913 432.494C444.25 432.775 444.519 433.125 444.72 433.545C444.921 433.962 445.023 434.417 445.027 434.909C445.023 435.538 444.853 436.098 444.516 436.591C444.182 437.08 443.718 437.464 443.124 437.744C442.533 438.021 441.849 438.159 441.072 438.159ZM441.072 436.909C441.599 436.909 442.054 436.824 442.436 436.653C442.819 436.483 443.114 436.242 443.322 435.932C443.531 435.621 443.637 435.258 443.641 434.841C443.637 434.402 443.523 434.013 443.3 433.676C443.076 433.339 442.771 433.074 442.385 432.881C442.002 432.687 441.565 432.591 441.072 432.591C440.576 432.591 440.133 432.687 439.743 432.881C439.357 433.074 439.052 433.339 438.828 433.676C438.608 434.013 438.5 434.402 438.504 434.841C438.5 435.258 438.601 435.621 438.805 435.932C439.014 436.242 439.311 436.483 439.697 436.653C440.084 436.824 440.542 436.909 441.072 436.909ZM441.072 431.386C441.489 431.386 441.858 431.303 442.18 431.136C442.506 430.97 442.762 430.737 442.947 430.438C443.133 430.138 443.228 429.788 443.232 429.386C443.228 428.992 443.135 428.65 442.953 428.358C442.771 428.062 442.519 427.835 442.197 427.676C441.875 427.513 441.5 427.432 441.072 427.432C440.637 427.432 440.256 427.513 439.93 427.676C439.605 427.835 439.353 428.062 439.175 428.358C438.997 428.65 438.91 428.992 438.913 429.386C438.91 429.788 438.999 430.138 439.18 430.438C439.366 430.737 439.622 430.97 439.947 431.136C440.273 431.303 440.648 431.386 441.072 431.386Z" fill="black"/>
<path d="M490.268 426.364H491.655V435.523H491.768L498.132 426.364H499.496V438H498.087V428.864H497.973L491.632 438H490.268V426.364ZM506.315 433.091V434.341H501.702V433.091H506.315ZM502.838 429.273V438H501.497V429.273H502.838ZM508.997 438.182C508.209 438.182 507.518 437.994 506.923 437.619C506.332 437.244 505.87 436.72 505.537 436.045C505.207 435.371 505.043 434.583 505.043 433.682C505.043 432.773 505.207 431.979 505.537 431.301C505.87 430.623 506.332 430.097 506.923 429.722C507.518 429.347 508.209 429.159 508.997 429.159C509.785 429.159 510.474 429.347 511.065 429.722C511.66 430.097 512.122 430.623 512.452 431.301C512.785 431.979 512.952 432.773 512.952 433.682C512.952 434.583 512.785 435.371 512.452 436.045C512.122 436.72 511.66 437.244 511.065 437.619C510.474 437.994 509.785 438.182 508.997 438.182ZM508.997 436.977C509.596 436.977 510.088 436.824 510.474 436.517C510.861 436.21 511.147 435.807 511.332 435.307C511.518 434.807 511.611 434.265 511.611 433.682C511.611 433.098 511.518 432.555 511.332 432.051C511.147 431.547 510.861 431.14 510.474 430.83C510.088 430.519 509.596 430.364 508.997 430.364C508.399 430.364 507.906 430.519 507.52 430.83C507.134 431.14 506.848 431.547 506.662 432.051C506.476 432.555 506.384 433.098 506.384 433.682C506.384 434.265 506.476 434.807 506.662 435.307C506.848 435.807 507.134 436.21 507.52 436.517C507.906 436.824 508.399 436.977 508.997 436.977ZM514.361 438V436.75H514.679C514.94 436.75 515.158 436.699 515.332 436.597C515.507 436.491 515.647 436.307 515.753 436.045C515.863 435.78 515.946 435.413 516.003 434.943C516.063 434.47 516.107 433.867 516.134 433.136L516.293 429.273H522.111V438H520.77V430.523H517.565L517.429 433.636C517.399 434.352 517.334 434.983 517.236 435.528C517.141 436.07 516.995 436.525 516.798 436.892C516.605 437.259 516.348 437.536 516.026 437.722C515.704 437.907 515.3 438 514.815 438H514.361ZM525.73 432.432H528.23C529.253 432.432 530.035 432.691 530.577 433.21C531.118 433.729 531.389 434.386 531.389 435.182C531.389 435.705 531.268 436.18 531.026 436.608C530.783 437.032 530.427 437.371 529.957 437.625C529.488 437.875 528.912 438 528.23 438H524.571V429.273H525.912V436.75H528.23C528.76 436.75 529.196 436.61 529.537 436.33C529.878 436.049 530.048 435.689 530.048 435.25C530.048 434.788 529.878 434.411 529.537 434.119C529.196 433.828 528.76 433.682 528.23 433.682H525.73V432.432ZM541.999 426.364V438H540.589V427.841H540.521L537.68 429.727V428.295L540.589 426.364H541.999ZM549.072 438.159C548.292 438.159 547.603 438.021 547.004 437.744C546.41 437.464 545.946 437.08 545.612 436.591C545.279 436.098 545.114 435.538 545.118 434.909C545.114 434.417 545.211 433.962 545.408 433.545C545.605 433.125 545.874 432.775 546.214 432.494C546.559 432.21 546.944 432.03 547.368 431.955V431.886C546.811 431.742 546.368 431.43 546.038 430.949C545.709 430.464 545.546 429.913 545.55 429.295C545.546 428.705 545.696 428.176 545.999 427.71C546.302 427.244 546.718 426.877 547.249 426.608C547.783 426.339 548.391 426.205 549.072 426.205C549.747 426.205 550.349 426.339 550.879 426.608C551.41 426.877 551.826 427.244 552.129 427.71C552.436 428.176 552.591 428.705 552.595 429.295C552.591 429.913 552.423 430.464 552.089 430.949C551.76 431.43 551.322 431.742 550.777 431.886V431.955C551.197 432.03 551.576 432.21 551.913 432.494C552.25 432.775 552.519 433.125 552.72 433.545C552.921 433.962 553.023 434.417 553.027 434.909C553.023 435.538 552.853 436.098 552.516 436.591C552.182 437.08 551.718 437.464 551.124 437.744C550.533 438.021 549.849 438.159 549.072 438.159ZM549.072 436.909C549.599 436.909 550.054 436.824 550.436 436.653C550.819 436.483 551.114 436.242 551.322 435.932C551.531 435.621 551.637 435.258 551.641 434.841C551.637 434.402 551.523 434.013 551.3 433.676C551.076 433.339 550.771 433.074 550.385 432.881C550.002 432.687 549.565 432.591 549.072 432.591C548.576 432.591 548.133 432.687 547.743 432.881C547.357 433.074 547.052 433.339 546.828 433.676C546.608 434.013 546.5 434.402 546.504 434.841C546.5 435.258 546.601 435.621 546.805 435.932C547.014 436.242 547.311 436.483 547.697 436.653C548.084 436.824 548.542 436.909 549.072 436.909ZM549.072 431.386C549.489 431.386 549.858 431.303 550.18 431.136C550.506 430.97 550.762 430.737 550.947 430.438C551.133 430.138 551.228 429.788 551.232 429.386C551.228 428.992 551.135 428.65 550.953 428.358C550.771 428.062 550.519 427.835 550.197 427.676C549.875 427.513 549.5 427.432 549.072 427.432C548.637 427.432 548.256 427.513 547.93 427.676C547.605 427.835 547.353 428.062 547.175 428.358C546.997 428.65 546.91 428.992 546.913 429.386C546.91 429.788 546.999 430.138 547.18 430.438C547.366 430.737 547.622 430.97 547.947 431.136C548.273 431.303 548.648 431.386 549.072 431.386Z" fill="black"/>
<path d="M598.058 438H596.581L600.854 426.364H602.308L606.581 438H605.104L601.626 428.205H601.536L598.058 438ZM598.604 433.455H604.558V434.705H598.604V433.455ZM608.212 438V429.273H611.78C612.719 429.273 613.465 429.485 614.018 429.909C614.571 430.333 614.848 430.894 614.848 431.591C614.848 432.121 614.691 432.532 614.376 432.824C614.062 433.112 613.659 433.307 613.166 433.409C613.488 433.455 613.801 433.568 614.104 433.75C614.411 433.932 614.664 434.182 614.865 434.5C615.066 434.814 615.166 435.201 615.166 435.659C615.166 436.106 615.053 436.506 614.825 436.858C614.598 437.21 614.272 437.489 613.848 437.693C613.424 437.898 612.916 438 612.325 438H608.212ZM609.484 436.773H612.325C612.787 436.773 613.149 436.663 613.411 436.443C613.672 436.223 613.803 435.924 613.803 435.545C613.803 435.095 613.672 434.741 613.411 434.483C613.149 434.222 612.787 434.091 612.325 434.091H609.484V436.773ZM609.484 432.932H611.78C612.14 432.932 612.448 432.883 612.706 432.784C612.964 432.682 613.161 432.538 613.297 432.352C613.437 432.163 613.507 431.939 613.507 431.682C613.507 431.314 613.354 431.027 613.047 430.818C612.74 430.606 612.318 430.5 611.78 430.5H609.484V432.932ZM622.582 429.273V430.523H618.537V438H617.196V429.273H622.582ZM625.403 441.273C625.176 441.273 624.973 441.254 624.795 441.216C624.617 441.182 624.494 441.148 624.426 441.114L624.767 439.932C625.093 440.015 625.381 440.045 625.631 440.023C625.881 440 626.102 439.888 626.295 439.688C626.492 439.491 626.672 439.17 626.835 438.727L627.085 438.045L623.858 429.273H625.312L627.722 436.227H627.812L630.222 429.273H631.676L627.972 439.273C627.805 439.723 627.598 440.097 627.352 440.392C627.106 440.691 626.82 440.913 626.494 441.057C626.172 441.201 625.809 441.273 625.403 441.273ZM636.679 438.182C635.861 438.182 635.156 437.989 634.565 437.602C633.974 437.216 633.52 436.684 633.202 436.006C632.884 435.328 632.724 434.553 632.724 433.682C632.724 432.795 632.887 432.013 633.213 431.335C633.543 430.653 634.001 430.121 634.588 429.739C635.179 429.352 635.868 429.159 636.656 429.159C637.27 429.159 637.823 429.273 638.315 429.5C638.808 429.727 639.211 430.045 639.526 430.455C639.84 430.864 640.035 431.341 640.111 431.886H638.77C638.668 431.489 638.44 431.136 638.088 430.83C637.74 430.519 637.27 430.364 636.679 430.364C636.156 430.364 635.698 430.5 635.304 430.773C634.914 431.042 634.609 431.422 634.389 431.915C634.173 432.403 634.065 432.977 634.065 433.636C634.065 434.311 634.171 434.898 634.384 435.398C634.599 435.898 634.902 436.286 635.293 436.562C635.687 436.839 636.149 436.977 636.679 436.977C637.027 436.977 637.344 436.917 637.628 436.795C637.912 436.674 638.152 436.5 638.349 436.273C638.546 436.045 638.687 435.773 638.77 435.455H640.111C640.035 435.97 639.848 436.434 639.548 436.847C639.253 437.256 638.861 437.581 638.372 437.824C637.887 438.062 637.323 438.182 636.679 438.182ZM641.384 430.523V429.273H648.474V430.523H645.611V438H644.27V430.523H641.384ZM658.999 426.364V438H657.589V427.841H657.521L654.68 429.727V428.295L657.589 426.364H658.999ZM666.072 438.159C665.292 438.159 664.603 438.021 664.004 437.744C663.41 437.464 662.946 437.08 662.612 436.591C662.279 436.098 662.114 435.538 662.118 434.909C662.114 434.417 662.211 433.962 662.408 433.545C662.605 433.125 662.874 432.775 663.214 432.494C663.559 432.21 663.944 432.03 664.368 431.955V431.886C663.811 431.742 663.368 431.43 663.038 430.949C662.709 430.464 662.546 429.913 662.55 429.295C662.546 428.705 662.696 428.176 662.999 427.71C663.302 427.244 663.718 426.877 664.249 426.608C664.783 426.339 665.391 426.205 666.072 426.205C666.747 426.205 667.349 426.339 667.879 426.608C668.41 426.877 668.826 427.244 669.129 427.71C669.436 428.176 669.591 428.705 669.595 429.295C669.591 429.913 669.423 430.464 669.089 430.949C668.76 431.43 668.322 431.742 667.777 431.886V431.955C668.197 432.03 668.576 432.21 668.913 432.494C669.25 432.775 669.519 433.125 669.72 433.545C669.921 433.962 670.023 434.417 670.027 434.909C670.023 435.538 669.853 436.098 669.516 436.591C669.182 437.08 668.718 437.464 668.124 437.744C667.533 438.021 666.849 438.159 666.072 438.159ZM666.072 436.909C666.599 436.909 667.054 436.824 667.436 436.653C667.819 436.483 668.114 436.242 668.322 435.932C668.531 435.621 668.637 435.258 668.641 434.841C668.637 434.402 668.523 434.013 668.3 433.676C668.076 433.339 667.771 433.074 667.385 432.881C667.002 432.687 666.565 432.591 666.072 432.591C665.576 432.591 665.133 432.687 664.743 432.881C664.357 433.074 664.052 433.339 663.828 433.676C663.608 434.013 663.5 434.402 663.504 434.841C663.5 435.258 663.601 435.621 663.805 435.932C664.014 436.242 664.311 436.483 664.697 436.653C665.084 436.824 665.542 436.909 666.072 436.909ZM666.072 431.386C666.489 431.386 666.858 431.303 667.18 431.136C667.506 430.97 667.762 430.737 667.947 430.438C668.133 430.138 668.228 429.788 668.232 429.386C668.228 428.992 668.135 428.65 667.953 428.358C667.771 428.062 667.519 427.835 667.197 427.676C666.875 427.513 666.5 427.432 666.072 427.432C665.637 427.432 665.256 427.513 664.93 427.676C664.605 427.835 664.353 428.062 664.175 428.358C663.997 428.65 663.91 428.992 663.913 429.386C663.91 429.788 663.999 430.138 664.18 430.438C664.366 430.737 664.622 430.97 664.947 431.136C665.273 431.303 665.648 431.386 666.072 431.386Z" fill="black"/>
<path d="M724.82 430H723.411C723.327 429.595 723.181 429.239 722.973 428.932C722.768 428.625 722.518 428.367 722.223 428.159C721.931 427.947 721.607 427.788 721.251 427.682C720.895 427.576 720.524 427.523 720.138 427.523C719.433 427.523 718.795 427.701 718.223 428.057C717.655 428.413 717.202 428.938 716.865 429.631C716.532 430.324 716.365 431.174 716.365 432.182C716.365 433.189 716.532 434.04 716.865 434.733C717.202 435.426 717.655 435.951 718.223 436.307C718.795 436.663 719.433 436.841 720.138 436.841C720.524 436.841 720.895 436.788 721.251 436.682C721.607 436.576 721.931 436.419 722.223 436.21C722.518 435.998 722.768 435.739 722.973 435.432C723.181 435.121 723.327 434.765 723.411 434.364H724.82C724.714 434.958 724.52 435.491 724.24 435.96C723.96 436.43 723.611 436.83 723.195 437.159C722.778 437.485 722.31 437.733 721.791 437.903C721.276 438.074 720.725 438.159 720.138 438.159C719.145 438.159 718.263 437.917 717.49 437.432C716.717 436.947 716.109 436.258 715.666 435.364C715.223 434.47 715.001 433.409 715.001 432.182C715.001 430.955 715.223 429.894 715.666 429C716.109 428.106 716.717 427.417 717.49 426.932C718.263 426.447 719.145 426.205 720.138 426.205C720.725 426.205 721.276 426.29 721.791 426.46C722.31 426.631 722.778 426.881 723.195 427.21C723.611 427.536 723.96 427.934 724.24 428.403C724.52 428.869 724.714 429.402 724.82 430ZM730.574 438.182C729.733 438.182 729.008 437.996 728.398 437.625C727.792 437.25 727.324 436.727 726.994 436.057C726.669 435.383 726.506 434.598 726.506 433.705C726.506 432.811 726.669 432.023 726.994 431.341C727.324 430.655 727.782 430.121 728.369 429.739C728.96 429.352 729.65 429.159 730.438 429.159C730.892 429.159 731.341 429.235 731.784 429.386C732.227 429.538 732.631 429.784 732.994 430.125C733.358 430.462 733.648 430.909 733.864 431.466C734.08 432.023 734.188 432.708 734.188 433.523V434.091H727.46V432.932H732.824C732.824 432.439 732.725 432 732.528 431.614C732.335 431.227 732.059 430.922 731.699 430.699C731.343 430.475 730.922 430.364 730.438 430.364C729.903 430.364 729.441 430.496 729.051 430.761C728.665 431.023 728.367 431.364 728.159 431.784C727.951 432.205 727.847 432.655 727.847 433.136V433.909C727.847 434.568 727.96 435.127 728.188 435.585C728.419 436.04 728.739 436.386 729.148 436.625C729.557 436.86 730.032 436.977 730.574 436.977C730.926 436.977 731.244 436.928 731.528 436.83C731.816 436.727 732.064 436.576 732.273 436.375C732.481 436.17 732.642 435.917 732.756 435.614L734.051 435.977C733.915 436.417 733.686 436.803 733.364 437.136C733.042 437.466 732.644 437.723 732.17 437.909C731.697 438.091 731.165 438.182 730.574 438.182ZM742.068 433.023V434.273H737.25V433.023H742.068ZM737.568 429.273V438H736.227V429.273H737.568ZM743.091 429.273V438H741.75V429.273H743.091ZM744.352 430.523V429.273H751.443V430.523H748.58V438H747.239V430.523H744.352ZM758.649 438V430.5H756.331C755.808 430.5 755.397 430.621 755.098 430.864C754.799 431.106 754.649 431.439 754.649 431.864C754.649 432.28 754.784 432.608 755.053 432.847C755.325 433.085 755.698 433.205 756.172 433.205H758.99V434.455H756.172C755.581 434.455 755.071 434.35 754.643 434.142C754.215 433.934 753.886 433.636 753.655 433.25C753.424 432.86 753.308 432.398 753.308 431.864C753.308 431.326 753.429 430.864 753.672 430.477C753.914 430.091 754.261 429.794 754.712 429.585C755.166 429.377 755.706 429.273 756.331 429.273H759.922V438H758.649ZM752.831 438L755.308 433.659H756.763L754.286 438H752.831ZM768.861 426L769.543 426.818C769.277 427.076 768.971 427.256 768.622 427.358C768.274 427.46 767.88 427.523 767.44 427.545C767.001 427.568 766.512 427.591 765.974 427.614C765.368 427.636 764.866 427.784 764.469 428.057C764.071 428.33 763.764 428.723 763.548 429.239C763.332 429.754 763.194 430.386 763.134 431.136H763.247C763.543 430.591 763.952 430.189 764.474 429.932C764.997 429.674 765.558 429.545 766.156 429.545C766.838 429.545 767.452 429.705 767.997 430.023C768.543 430.341 768.974 430.812 769.293 431.438C769.611 432.062 769.77 432.833 769.77 433.75C769.77 434.663 769.607 435.451 769.281 436.114C768.959 436.777 768.507 437.288 767.923 437.648C767.344 438.004 766.664 438.182 765.884 438.182C765.103 438.182 764.42 437.998 763.832 437.631C763.245 437.259 762.789 436.71 762.463 435.983C762.137 435.252 761.974 434.348 761.974 433.273V432.341C761.974 430.398 762.304 428.924 762.963 427.92C763.626 426.917 764.622 426.398 765.952 426.364C766.421 426.348 766.84 426.345 767.207 426.352C767.575 426.36 767.895 426.343 768.168 426.301C768.44 426.259 768.671 426.159 768.861 426ZM765.884 436.977C766.41 436.977 766.863 436.845 767.241 436.58C767.624 436.314 767.918 435.941 768.122 435.46C768.327 434.975 768.429 434.405 768.429 433.75C768.429 433.114 768.325 432.572 768.116 432.125C767.912 431.678 767.618 431.337 767.236 431.102C766.853 430.867 766.395 430.75 765.861 430.75C765.471 430.75 765.12 430.816 764.81 430.949C764.499 431.081 764.234 431.277 764.014 431.534C763.795 431.792 763.624 432.106 763.503 432.477C763.385 432.848 763.323 433.273 763.315 433.75C763.315 434.727 763.545 435.509 764.003 436.097C764.461 436.684 765.088 436.977 765.884 436.977ZM771.821 441.273V429.273H773.116V430.659H773.276C773.374 430.508 773.51 430.314 773.685 430.08C773.863 429.841 774.116 429.629 774.446 429.443C774.779 429.254 775.23 429.159 775.798 429.159C776.533 429.159 777.181 429.343 777.741 429.71C778.302 430.078 778.74 430.598 779.054 431.273C779.368 431.947 779.526 432.742 779.526 433.659C779.526 434.583 779.368 435.384 779.054 436.062C778.74 436.737 778.304 437.259 777.747 437.631C777.19 437.998 776.548 438.182 775.821 438.182C775.26 438.182 774.812 438.089 774.474 437.903C774.137 437.714 773.878 437.5 773.696 437.261C773.514 437.019 773.374 436.818 773.276 436.659H773.162V441.273H771.821ZM773.139 433.636C773.139 434.295 773.236 434.877 773.429 435.381C773.622 435.881 773.904 436.273 774.276 436.557C774.647 436.837 775.101 436.977 775.639 436.977C776.2 436.977 776.668 436.83 777.043 436.534C777.421 436.235 777.705 435.833 777.895 435.33C778.088 434.822 778.185 434.258 778.185 433.636C778.185 433.023 778.09 432.47 777.901 431.977C777.715 431.481 777.433 431.089 777.054 430.801C776.679 430.509 776.207 430.364 775.639 430.364C775.094 430.364 774.635 430.502 774.264 430.778C773.893 431.051 773.613 431.434 773.423 431.926C773.234 432.415 773.139 432.985 773.139 433.636ZM782.73 432.432H785.23C786.253 432.432 787.035 432.691 787.577 433.21C788.118 433.729 788.389 434.386 788.389 435.182C788.389 435.705 788.268 436.18 788.026 436.608C787.783 437.032 787.427 437.371 786.957 437.625C786.488 437.875 785.912 438 785.23 438H781.571V429.273H782.912V436.75H785.23C785.76 436.75 786.196 436.61 786.537 436.33C786.878 436.049 787.048 435.689 787.048 435.25C787.048 434.788 786.878 434.411 786.537 434.119C786.196 433.828 785.76 433.682 785.23 433.682H782.73V432.432ZM798.999 426.364V438H797.589V427.841H797.521L794.68 429.727V428.295L797.589 426.364H798.999ZM806.072 438.159C805.292 438.159 804.603 438.021 804.004 437.744C803.41 437.464 802.946 437.08 802.612 436.591C802.279 436.098 802.114 435.538 802.118 434.909C802.114 434.417 802.211 433.962 802.408 433.545C802.605 433.125 802.874 432.775 803.214 432.494C803.559 432.21 803.944 432.03 804.368 431.955V431.886C803.811 431.742 803.368 431.43 803.038 430.949C802.709 430.464 802.546 429.913 802.55 429.295C802.546 428.705 802.696 428.176 802.999 427.71C803.302 427.244 803.718 426.877 804.249 426.608C804.783 426.339 805.391 426.205 806.072 426.205C806.747 426.205 807.349 426.339 807.879 426.608C808.41 426.877 808.826 427.244 809.129 427.71C809.436 428.176 809.591 428.705 809.595 429.295C809.591 429.913 809.423 430.464 809.089 430.949C808.76 431.43 808.322 431.742 807.777 431.886V431.955C808.197 432.03 808.576 432.21 808.913 432.494C809.25 432.775 809.519 433.125 809.72 433.545C809.921 433.962 810.023 434.417 810.027 434.909C810.023 435.538 809.853 436.098 809.516 436.591C809.182 437.08 808.718 437.464 808.124 437.744C807.533 438.021 806.849 438.159 806.072 438.159ZM806.072 436.909C806.599 436.909 807.054 436.824 807.436 436.653C807.819 436.483 808.114 436.242 808.322 435.932C808.531 435.621 808.637 435.258 808.641 434.841C808.637 434.402 808.523 434.013 808.3 433.676C808.076 433.339 807.771 433.074 807.385 432.881C807.002 432.687 806.565 432.591 806.072 432.591C805.576 432.591 805.133 432.687 804.743 432.881C804.357 433.074 804.052 433.339 803.828 433.676C803.608 434.013 803.5 434.402 803.504 434.841C803.5 435.258 803.601 435.621 803.805 435.932C804.014 436.242 804.311 436.483 804.697 436.653C805.084 436.824 805.542 436.909 806.072 436.909ZM806.072 431.386C806.489 431.386 806.858 431.303 807.18 431.136C807.506 430.97 807.762 430.737 807.947 430.438C808.133 430.138 808.228 429.788 808.232 429.386C808.228 428.992 808.135 428.65 807.953 428.358C807.771 428.062 807.519 427.835 807.197 427.676C806.875 427.513 806.5 427.432 806.072 427.432C805.637 427.432 805.256 427.513 804.93 427.676C804.605 427.835 804.353 428.062 804.175 428.358C803.997 428.65 803.91 428.992 803.913 429.386C803.91 429.788 803.999 430.138 804.18 430.438C804.366 430.737 804.622 430.97 804.947 431.136C805.273 431.303 805.648 431.386 806.072 431.386Z" fill="black"/>
<path d="M865.071 432.182C865.071 433.409 864.849 434.47 864.406 435.364C863.963 436.258 863.355 436.947 862.582 437.432C861.81 437.917 860.927 438.159 859.935 438.159C858.942 438.159 858.06 437.917 857.287 437.432C856.514 436.947 855.906 436.258 855.463 435.364C855.02 434.47 854.798 433.409 854.798 432.182C854.798 430.955 855.02 429.894 855.463 429C855.906 428.106 856.514 427.417 857.287 426.932C858.06 426.447 858.942 426.205 859.935 426.205C860.927 426.205 861.81 426.447 862.582 426.932C863.355 427.417 863.963 428.106 864.406 429C864.849 429.894 865.071 430.955 865.071 432.182ZM863.707 432.182C863.707 431.174 863.539 430.324 863.202 429.631C862.868 428.938 862.416 428.413 861.844 428.057C861.276 427.701 860.639 427.523 859.935 427.523C859.23 427.523 858.592 427.701 858.02 428.057C857.452 428.413 856.999 428.938 856.662 429.631C856.329 430.324 856.162 431.174 856.162 432.182C856.162 433.189 856.329 434.04 856.662 434.733C856.999 435.426 857.452 435.951 858.02 436.307C858.592 436.663 859.23 436.841 859.935 436.841C860.639 436.841 861.276 436.663 861.844 436.307C862.416 435.951 862.868 435.426 863.202 434.733C863.539 434.04 863.707 433.189 863.707 432.182ZM867.259 438V429.273H868.599V433.068H869.486L872.622 429.273H874.349L870.827 433.477L874.395 438H872.668L869.804 434.318H868.599V438H867.259ZM875.352 430.523V429.273H882.443V430.523H879.58V438H878.239V430.523H875.352ZM889.649 438V430.5H887.331C886.808 430.5 886.397 430.621 886.098 430.864C885.799 431.106 885.649 431.439 885.649 431.864C885.649 432.28 885.784 432.608 886.053 432.847C886.325 433.085 886.698 433.205 887.172 433.205H889.99V434.455H887.172C886.581 434.455 886.071 434.35 885.643 434.142C885.215 433.934 884.886 433.636 884.655 433.25C884.424 432.86 884.308 432.398 884.308 431.864C884.308 431.326 884.429 430.864 884.672 430.477C884.914 430.091 885.261 429.794 885.712 429.585C886.166 429.377 886.706 429.273 887.331 429.273H890.922V438H889.649ZM883.831 438L886.308 433.659H887.763L885.286 438H883.831ZM899.861 426L900.543 426.818C900.277 427.076 899.971 427.256 899.622 427.358C899.274 427.46 898.88 427.523 898.44 427.545C898.001 427.568 897.512 427.591 896.974 427.614C896.368 427.636 895.866 427.784 895.469 428.057C895.071 428.33 894.764 428.723 894.548 429.239C894.332 429.754 894.194 430.386 894.134 431.136H894.247C894.543 430.591 894.952 430.189 895.474 429.932C895.997 429.674 896.558 429.545 897.156 429.545C897.838 429.545 898.452 429.705 898.997 430.023C899.543 430.341 899.974 430.812 900.293 431.438C900.611 432.062 900.77 432.833 900.77 433.75C900.77 434.663 900.607 435.451 900.281 436.114C899.959 436.777 899.507 437.288 898.923 437.648C898.344 438.004 897.664 438.182 896.884 438.182C896.103 438.182 895.42 437.998 894.832 437.631C894.245 437.259 893.789 436.71 893.463 435.983C893.137 435.252 892.974 434.348 892.974 433.273V432.341C892.974 430.398 893.304 428.924 893.963 427.92C894.626 426.917 895.622 426.398 896.952 426.364C897.421 426.348 897.84 426.345 898.207 426.352C898.575 426.36 898.895 426.343 899.168 426.301C899.44 426.259 899.671 426.159 899.861 426ZM896.884 436.977C897.41 436.977 897.863 436.845 898.241 436.58C898.624 436.314 898.918 435.941 899.122 435.46C899.327 434.975 899.429 434.405 899.429 433.75C899.429 433.114 899.325 432.572 899.116 432.125C898.912 431.678 898.618 431.337 898.236 431.102C897.853 430.867 897.395 430.75 896.861 430.75C896.471 430.75 896.12 430.816 895.81 430.949C895.499 431.081 895.234 431.277 895.014 431.534C894.795 431.792 894.624 432.106 894.503 432.477C894.385 432.848 894.323 433.273 894.315 433.75C894.315 434.727 894.545 435.509 895.003 436.097C895.461 436.684 896.088 436.977 896.884 436.977ZM902.821 441.273V429.273H904.116V430.659H904.276C904.374 430.508 904.51 430.314 904.685 430.08C904.863 429.841 905.116 429.629 905.446 429.443C905.779 429.254 906.23 429.159 906.798 429.159C907.533 429.159 908.181 429.343 908.741 429.71C909.302 430.078 909.74 430.598 910.054 431.273C910.368 431.947 910.526 432.742 910.526 433.659C910.526 434.583 910.368 435.384 910.054 436.062C909.74 436.737 909.304 437.259 908.747 437.631C908.19 437.998 907.548 438.182 906.821 438.182C906.26 438.182 905.812 438.089 905.474 437.903C905.137 437.714 904.878 437.5 904.696 437.261C904.514 437.019 904.374 436.818 904.276 436.659H904.162V441.273H902.821ZM904.139 433.636C904.139 434.295 904.236 434.877 904.429 435.381C904.622 435.881 904.904 436.273 905.276 436.557C905.647 436.837 906.101 436.977 906.639 436.977C907.2 436.977 907.668 436.83 908.043 436.534C908.421 436.235 908.705 435.833 908.895 435.33C909.088 434.822 909.185 434.258 909.185 433.636C909.185 433.023 909.09 432.47 908.901 431.977C908.715 431.481 908.433 431.089 908.054 430.801C907.679 430.509 907.207 430.364 906.639 430.364C906.094 430.364 905.635 430.502 905.264 430.778C904.893 431.051 904.613 431.434 904.423 431.926C904.234 432.415 904.139 432.985 904.139 433.636ZM913.73 432.432H916.23C917.253 432.432 918.035 432.691 918.577 433.21C919.118 433.729 919.389 434.386 919.389 435.182C919.389 435.705 919.268 436.18 919.026 436.608C918.783 437.032 918.427 437.371 917.957 437.625C917.488 437.875 916.912 438 916.23 438H912.571V429.273H913.912V436.75H916.23C916.76 436.75 917.196 436.61 917.537 436.33C917.878 436.049 918.048 435.689 918.048 435.25C918.048 434.788 917.878 434.411 917.537 434.119C917.196 433.828 916.76 433.682 916.23 433.682H913.73V432.432ZM929.999 426.364V438H928.589V427.841H928.521L925.68 429.727V428.295L928.589 426.364H929.999ZM937.072 438.159C936.292 438.159 935.603 438.021 935.004 437.744C934.41 437.464 933.946 437.08 933.612 436.591C933.279 436.098 933.114 435.538 933.118 434.909C933.114 434.417 933.211 433.962 933.408 433.545C933.605 433.125 933.874 432.775 934.214 432.494C934.559 432.21 934.944 432.03 935.368 431.955V431.886C934.811 431.742 934.368 431.43 934.038 430.949C933.709 430.464 933.546 429.913 933.55 429.295C933.546 428.705 933.696 428.176 933.999 427.71C934.302 427.244 934.718 426.877 935.249 426.608C935.783 426.339 936.391 426.205 937.072 426.205C937.747 426.205 938.349 426.339 938.879 426.608C939.41 426.877 939.826 427.244 940.129 427.71C940.436 428.176 940.591 428.705 940.595 429.295C940.591 429.913 940.423 430.464 940.089 430.949C939.76 431.43 939.322 431.742 938.777 431.886V431.955C939.197 432.03 939.576 432.21 939.913 432.494C940.25 432.775 940.519 433.125 940.72 433.545C940.921 433.962 941.023 434.417 941.027 434.909C941.023 435.538 940.853 436.098 940.516 436.591C940.182 437.08 939.718 437.464 939.124 437.744C938.533 438.021 937.849 438.159 937.072 438.159ZM937.072 436.909C937.599 436.909 938.054 436.824 938.436 436.653C938.819 436.483 939.114 436.242 939.322 435.932C939.531 435.621 939.637 435.258 939.641 434.841C939.637 434.402 939.523 434.013 939.3 433.676C939.076 433.339 938.771 433.074 938.385 432.881C938.002 432.687 937.565 432.591 937.072 432.591C936.576 432.591 936.133 432.687 935.743 432.881C935.357 433.074 935.052 433.339 934.828 433.676C934.608 434.013 934.5 434.402 934.504 434.841C934.5 435.258 934.601 435.621 934.805 435.932C935.014 436.242 935.311 436.483 935.697 436.653C936.084 436.824 936.542 436.909 937.072 436.909ZM937.072 431.386C937.489 431.386 937.858 431.303 938.18 431.136C938.506 430.97 938.762 430.737 938.947 430.438C939.133 430.138 939.228 429.788 939.232 429.386C939.228 428.992 939.135 428.65 938.953 428.358C938.771 428.062 938.519 427.835 938.197 427.676C937.875 427.513 937.5 427.432 937.072 427.432C936.637 427.432 936.256 427.513 935.93 427.676C935.605 427.835 935.353 428.062 935.175 428.358C934.997 428.65 934.91 428.992 934.913 429.386C934.91 429.788 934.999 430.138 935.18 430.438C935.366 430.737 935.622 430.97 935.947 431.136C936.273 431.303 936.648 431.386 937.072 431.386Z" fill="black"/>
<path d="M13.6392 47.3636V59H12.2301V48.8409H12.1619L9.32102 50.7273V49.2955L12.2301 47.3636H13.6392ZM21.8494 59L27.054 48.7045V48.6136H21.054V47.3636H28.5085V48.6818L23.3267 59H21.8494ZM34.1065 59.1591C33.4399 59.1591 32.8395 59.0265 32.3054 58.7614C31.7713 58.4962 31.3433 58.1326 31.0213 57.6705C30.6993 57.2083 30.5232 56.6818 30.4929 56.0909H31.8565C31.9096 56.6174 32.1482 57.053 32.5724 57.3977C33.0005 57.7386 33.5118 57.9091 34.1065 57.9091C34.5838 57.9091 35.008 57.7973 35.3793 57.5739C35.7543 57.3504 36.0478 57.0436 36.2599 56.6534C36.4759 56.2595 36.5838 55.8144 36.5838 55.3182C36.5838 54.8106 36.4721 54.358 36.2486 53.9602C36.0289 53.5587 35.7259 53.2424 35.3395 53.0114C34.9531 52.7803 34.5118 52.6629 34.0156 52.6591C33.6596 52.6553 33.294 52.7102 32.919 52.8239C32.544 52.9337 32.2353 53.0758 31.9929 53.25L30.6747 53.0909L31.3793 47.3636H37.4247V48.6136H32.5611L32.152 52.0455H32.2202C32.4588 51.8561 32.758 51.6989 33.1179 51.5739C33.4777 51.4489 33.8527 51.3864 34.2429 51.3864C34.955 51.3864 35.5895 51.5568 36.1463 51.8977C36.7069 52.2348 37.1463 52.697 37.4645 53.2841C37.7865 53.8712 37.9474 54.5417 37.9474 55.2955C37.9474 56.0379 37.7808 56.7008 37.4474 57.2841C37.1179 57.8636 36.6634 58.322 36.0838 58.6591C35.5043 58.9924 34.8452 59.1591 34.1065 59.1591ZM44 59.1591C43.1439 59.1591 42.4148 58.9261 41.8125 58.4602C41.2102 57.9905 40.75 57.3106 40.4318 56.4205C40.1136 55.5265 39.9545 54.447 39.9545 53.1818C39.9545 51.9242 40.1136 50.8504 40.4318 49.9602C40.7538 49.0663 41.2159 48.3845 41.8182 47.9148C42.4242 47.4413 43.1515 47.2045 44 47.2045C44.8485 47.2045 45.5739 47.4413 46.1761 47.9148C46.7822 48.3845 47.2443 49.0663 47.5625 49.9602C47.8845 50.8504 48.0455 51.9242 48.0455 53.1818C48.0455 54.447 47.8864 55.5265 47.5682 56.4205C47.25 57.3106 46.7898 57.9905 46.1875 58.4602C45.5852 58.9261 44.8561 59.1591 44 59.1591ZM44 57.9091C44.8485 57.9091 45.5076 57.5 45.9773 56.6818C46.447 55.8636 46.6818 54.697 46.6818 53.1818C46.6818 52.1742 46.5739 51.3163 46.358 50.608C46.1458 49.8996 45.839 49.3598 45.4375 48.9886C45.0398 48.6174 44.5606 48.4318 44 48.4318C43.1591 48.4318 42.5019 48.8466 42.0284 49.6761C41.5549 50.5019 41.3182 51.6705 41.3182 53.1818C41.3182 54.1894 41.4242 55.0455 41.6364 55.75C41.8485 56.4545 42.1534 56.9905 42.5511 57.358C42.9527 57.7254 43.4356 57.9091 44 57.9091Z" fill="black"/>
<path d="M21.8494 263L27.054 252.705V252.614H21.054V251.364H28.5085V252.682L23.3267 263H21.8494ZM34.1065 263.159C33.4399 263.159 32.8395 263.027 32.3054 262.761C31.7713 262.496 31.3433 262.133 31.0213 261.67C30.6993 261.208 30.5232 260.682 30.4929 260.091H31.8565C31.9096 260.617 32.1482 261.053 32.5724 261.398C33.0005 261.739 33.5118 261.909 34.1065 261.909C34.5838 261.909 35.008 261.797 35.3793 261.574C35.7543 261.35 36.0478 261.044 36.2599 260.653C36.4759 260.259 36.5838 259.814 36.5838 259.318C36.5838 258.811 36.4721 258.358 36.2486 257.96C36.0289 257.559 35.7259 257.242 35.3395 257.011C34.9531 256.78 34.5118 256.663 34.0156 256.659C33.6596 256.655 33.294 256.71 32.919 256.824C32.544 256.934 32.2353 257.076 31.9929 257.25L30.6747 257.091L31.3793 251.364H37.4247V252.614H32.5611L32.152 256.045H32.2202C32.4588 255.856 32.758 255.699 33.1179 255.574C33.4777 255.449 33.8527 255.386 34.2429 255.386C34.955 255.386 35.5895 255.557 36.1463 255.898C36.7069 256.235 37.1463 256.697 37.4645 257.284C37.7865 257.871 37.9474 258.542 37.9474 259.295C37.9474 260.038 37.7808 260.701 37.4474 261.284C37.1179 261.864 36.6634 262.322 36.0838 262.659C35.5043 262.992 34.8452 263.159 34.1065 263.159ZM44 263.159C43.1439 263.159 42.4148 262.926 41.8125 262.46C41.2102 261.991 40.75 261.311 40.4318 260.42C40.1136 259.527 39.9545 258.447 39.9545 257.182C39.9545 255.924 40.1136 254.85 40.4318 253.96C40.7538 253.066 41.2159 252.384 41.8182 251.915C42.4242 251.441 43.1515 251.205 44 251.205C44.8485 251.205 45.5739 251.441 46.1761 251.915C46.7822 252.384 47.2443 253.066 47.5625 253.96C47.8845 254.85 48.0455 255.924 48.0455 257.182C48.0455 258.447 47.8864 259.527 47.5682 260.42C47.25 261.311 46.7898 261.991 46.1875 262.46C45.5852 262.926 44.8561 263.159 44 263.159ZM44 261.909C44.8485 261.909 45.5076 261.5 45.9773 260.682C46.447 259.864 46.6818 258.697 46.6818 257.182C46.6818 256.174 46.5739 255.316 46.358 254.608C46.1458 253.9 45.839 253.36 45.4375 252.989C45.0398 252.617 44.5606 252.432 44 252.432C43.1591 252.432 42.5019 252.847 42.0284 253.676C41.5549 254.502 41.3182 255.67 41.3182 257.182C41.3182 258.189 41.4242 259.045 41.6364 259.75C41.8485 260.455 42.1534 260.991 42.5511 261.358C42.9527 261.725 43.4356 261.909 44 261.909Z" fill="black"/>
<path d="M12.6236 98.3636V110H11.2145V99.8409H11.1463L8.3054 101.727V100.295L11.2145 98.3636H12.6236ZM24.1065 110.159C23.4399 110.159 22.8395 110.027 22.3054 109.761C21.7713 109.496 21.3433 109.133 21.0213 108.67C20.6993 108.208 20.5232 107.682 20.4929 107.091H21.8565C21.9096 107.617 22.1482 108.053 22.5724 108.398C23.0005 108.739 23.5118 108.909 24.1065 108.909C24.5838 108.909 25.008 108.797 25.3793 108.574C25.7543 108.35 26.0478 108.044 26.2599 107.653C26.4759 107.259 26.5838 106.814 26.5838 106.318C26.5838 105.811 26.4721 105.358 26.2486 104.96C26.0289 104.559 25.7259 104.242 25.3395 104.011C24.9531 103.78 24.5118 103.663 24.0156 103.659C23.6596 103.655 23.294 103.71 22.919 103.824C22.544 103.934 22.2353 104.076 21.9929 104.25L20.6747 104.091L21.3793 98.3636H27.4247V99.6136H22.5611L22.152 103.045H22.2202C22.4588 102.856 22.758 102.699 23.1179 102.574C23.4777 102.449 23.8527 102.386 24.2429 102.386C24.955 102.386 25.5895 102.557 26.1463 102.898C26.7069 103.235 27.1463 103.697 27.4645 104.284C27.7865 104.871 27.9474 105.542 27.9474 106.295C27.9474 107.038 27.7808 107.701 27.4474 108.284C27.1179 108.864 26.6634 109.322 26.0838 109.659C25.5043 109.992 24.8452 110.159 24.1065 110.159ZM34 110.159C33.1439 110.159 32.4148 109.926 31.8125 109.46C31.2102 108.991 30.75 108.311 30.4318 107.42C30.1136 106.527 29.9545 105.447 29.9545 104.182C29.9545 102.924 30.1136 101.85 30.4318 100.96C30.7538 100.066 31.2159 99.3845 31.8182 98.9148C32.4242 98.4413 33.1515 98.2045 34 98.2045C34.8485 98.2045 35.5739 98.4413 36.1761 98.9148C36.7822 99.3845 37.2443 100.066 37.5625 100.96C37.8845 101.85 38.0455 102.924 38.0455 104.182C38.0455 105.447 37.8864 106.527 37.5682 107.42C37.25 108.311 36.7898 108.991 36.1875 109.46C35.5852 109.926 34.8561 110.159 34 110.159ZM34 108.909C34.8485 108.909 35.5076 108.5 35.9773 107.682C36.447 106.864 36.6818 105.697 36.6818 104.182C36.6818 103.174 36.5739 102.316 36.358 101.608C36.1458 100.9 35.839 100.36 35.4375 99.9886C35.0398 99.6174 34.5606 99.4318 34 99.4318C33.1591 99.4318 32.5019 99.8466 32.0284 100.676C31.5549 101.502 31.3182 102.67 31.3182 104.182C31.3182 105.189 31.4242 106.045 31.6364 106.75C31.8485 107.455 32.1534 107.991 32.5511 108.358C32.9527 108.725 33.4356 108.909 34 108.909ZM44 110.159C43.1439 110.159 42.4148 109.926 41.8125 109.46C41.2102 108.991 40.75 108.311 40.4318 107.42C40.1136 106.527 39.9545 105.447 39.9545 104.182C39.9545 102.924 40.1136 101.85 40.4318 100.96C40.7538 100.066 41.2159 99.3845 41.8182 98.9148C42.4242 98.4413 43.1515 98.2045 44 98.2045C44.8485 98.2045 45.5739 98.4413 46.1761 98.9148C46.7822 99.3845 47.2443 100.066 47.5625 100.96C47.8845 101.85 48.0455 102.924 48.0455 104.182C48.0455 105.447 47.8864 106.527 47.5682 107.42C47.25 108.311 46.7898 108.991 46.1875 109.46C45.5852 109.926 44.8561 110.159 44 110.159ZM44 108.909C44.8485 108.909 45.5076 108.5 45.9773 107.682C46.447 106.864 46.6818 105.697 46.6818 104.182C46.6818 103.174 46.5739 102.316 46.358 101.608C46.1458 100.9 45.839 100.36 45.4375 99.9886C45.0398 99.6174 44.5606 99.4318 44 99.4318C43.1591 99.4318 42.5019 99.8466 42.0284 100.676C41.5549 101.502 41.3182 102.67 41.3182 104.182C41.3182 105.189 41.4242 106.045 41.6364 106.75C41.8485 107.455 42.1534 107.991 42.5511 108.358C42.9527 108.725 43.4356 108.909 44 108.909Z" fill="black"/>
<path d="M12.9361 149.364V161H11.527V150.841H11.4588L8.6179 152.727V151.295L11.527 149.364H12.9361ZM20.7827 161V159.977L24.6236 155.773C25.0743 155.28 25.4455 154.852 25.7372 154.489C26.0289 154.121 26.2448 153.777 26.3849 153.455C26.5289 153.129 26.6009 152.788 26.6009 152.432C26.6009 152.023 26.5024 151.669 26.3054 151.369C26.1122 151.07 25.8471 150.839 25.5099 150.676C25.1728 150.513 24.794 150.432 24.3736 150.432C23.9266 150.432 23.5365 150.525 23.2031 150.71C22.8736 150.892 22.6179 151.148 22.4361 151.477C22.258 151.807 22.169 152.193 22.169 152.636H20.8281C20.8281 151.955 20.9853 151.356 21.2997 150.841C21.6141 150.326 22.0421 149.924 22.5838 149.636C23.1293 149.348 23.741 149.205 24.419 149.205C25.1009 149.205 25.705 149.348 26.2315 149.636C26.758 149.924 27.1709 150.312 27.4702 150.801C27.7694 151.29 27.919 151.833 27.919 152.432C27.919 152.86 27.8414 153.278 27.6861 153.688C27.5346 154.093 27.2694 154.545 26.8906 155.045C26.5156 155.542 25.9948 156.148 25.3281 156.864L22.7145 159.659V159.75H28.1236V161H20.7827ZM34.1065 161.159C33.4399 161.159 32.8395 161.027 32.3054 160.761C31.7713 160.496 31.3433 160.133 31.0213 159.67C30.6993 159.208 30.5232 158.682 30.4929 158.091H31.8565C31.9096 158.617 32.1482 159.053 32.5724 159.398C33.0005 159.739 33.5118 159.909 34.1065 159.909C34.5838 159.909 35.008 159.797 35.3793 159.574C35.7543 159.35 36.0478 159.044 36.2599 158.653C36.4759 158.259 36.5838 157.814 36.5838 157.318C36.5838 156.811 36.4721 156.358 36.2486 155.96C36.0289 155.559 35.7259 155.242 35.3395 155.011C34.9531 154.78 34.5118 154.663 34.0156 154.659C33.6596 154.655 33.294 154.71 32.919 154.824C32.544 154.934 32.2353 155.076 31.9929 155.25L30.6747 155.091L31.3793 149.364H37.4247V150.614H32.5611L32.152 154.045H32.2202C32.4588 153.856 32.758 153.699 33.1179 153.574C33.4777 153.449 33.8527 153.386 34.2429 153.386C34.955 153.386 35.5895 153.557 36.1463 153.898C36.7069 154.235 37.1463 154.697 37.4645 155.284C37.7865 155.871 37.9474 156.542 37.9474 157.295C37.9474 158.038 37.7808 158.701 37.4474 159.284C37.1179 159.864 36.6634 160.322 36.0838 160.659C35.5043 160.992 34.8452 161.159 34.1065 161.159ZM44 161.159C43.1439 161.159 42.4148 160.926 41.8125 160.46C41.2102 159.991 40.75 159.311 40.4318 158.42C40.1136 157.527 39.9545 156.447 39.9545 155.182C39.9545 153.924 40.1136 152.85 40.4318 151.96C40.7538 151.066 41.2159 150.384 41.8182 149.915C42.4242 149.441 43.1515 149.205 44 149.205C44.8485 149.205 45.5739 149.441 46.1761 149.915C46.7822 150.384 47.2443 151.066 47.5625 151.96C47.8845 152.85 48.0455 153.924 48.0455 155.182C48.0455 156.447 47.8864 157.527 47.5682 158.42C47.25 159.311 46.7898 159.991 46.1875 160.46C45.5852 160.926 44.8561 161.159 44 161.159ZM44 159.909C44.8485 159.909 45.5076 159.5 45.9773 158.682C46.447 157.864 46.6818 156.697 46.6818 155.182C46.6818 154.174 46.5739 153.316 46.358 152.608C46.1458 151.9 45.839 151.36 45.4375 150.989C45.0398 150.617 44.5606 150.432 44 150.432C43.1591 150.432 42.5019 150.847 42.0284 151.676C41.5549 152.502 41.3182 153.67 41.3182 155.182C41.3182 156.189 41.4242 157.045 41.6364 157.75C41.8485 158.455 42.1534 158.991 42.5511 159.358C42.9527 159.725 43.4356 159.909 44 159.909Z" fill="black"/>
<path d="M12.358 200.364V212H10.9489V201.841H10.8807L8.03977 203.727V202.295L10.9489 200.364H12.358ZM24 212.159C23.1439 212.159 22.4148 211.926 21.8125 211.46C21.2102 210.991 20.75 210.311 20.4318 209.42C20.1136 208.527 19.9545 207.447 19.9545 206.182C19.9545 204.924 20.1136 203.85 20.4318 202.96C20.7538 202.066 21.2159 201.384 21.8182 200.915C22.4242 200.441 23.1515 200.205 24 200.205C24.8485 200.205 25.5739 200.441 26.1761 200.915C26.7822 201.384 27.2443 202.066 27.5625 202.96C27.8845 203.85 28.0455 204.924 28.0455 206.182C28.0455 207.447 27.8864 208.527 27.5682 209.42C27.25 210.311 26.7898 210.991 26.1875 211.46C25.5852 211.926 24.8561 212.159 24 212.159ZM24 210.909C24.8485 210.909 25.5076 210.5 25.9773 209.682C26.447 208.864 26.6818 207.697 26.6818 206.182C26.6818 205.174 26.5739 204.316 26.358 203.608C26.1458 202.9 25.839 202.36 25.4375 201.989C25.0398 201.617 24.5606 201.432 24 201.432C23.1591 201.432 22.5019 201.847 22.0284 202.676C21.5549 203.502 21.3182 204.67 21.3182 206.182C21.3182 207.189 21.4242 208.045 21.6364 208.75C21.8485 209.455 22.1534 209.991 22.5511 210.358C22.9527 210.725 23.4356 210.909 24 210.909ZM34 212.159C33.1439 212.159 32.4148 211.926 31.8125 211.46C31.2102 210.991 30.75 210.311 30.4318 209.42C30.1136 208.527 29.9545 207.447 29.9545 206.182C29.9545 204.924 30.1136 203.85 30.4318 202.96C30.7538 202.066 31.2159 201.384 31.8182 200.915C32.4242 200.441 33.1515 200.205 34 200.205C34.8485 200.205 35.5739 200.441 36.1761 200.915C36.7822 201.384 37.2443 202.066 37.5625 202.96C37.8845 203.85 38.0455 204.924 38.0455 206.182C38.0455 207.447 37.8864 208.527 37.5682 209.42C37.25 210.311 36.7898 210.991 36.1875 211.46C35.5852 211.926 34.8561 212.159 34 212.159ZM34 210.909C34.8485 210.909 35.5076 210.5 35.9773 209.682C36.447 208.864 36.6818 207.697 36.6818 206.182C36.6818 205.174 36.5739 204.316 36.358 203.608C36.1458 202.9 35.839 202.36 35.4375 201.989C35.0398 201.617 34.5606 201.432 34 201.432C33.1591 201.432 32.5019 201.847 32.0284 202.676C31.5549 203.502 31.3182 204.67 31.3182 206.182C31.3182 207.189 31.4242 208.045 31.6364 208.75C31.8485 209.455 32.1534 209.991 32.5511 210.358C32.9527 210.725 33.4356 210.909 34 210.909ZM44 212.159C43.1439 212.159 42.4148 211.926 41.8125 211.46C41.2102 210.991 40.75 210.311 40.4318 209.42C40.1136 208.527 39.9545 207.447 39.9545 206.182C39.9545 204.924 40.1136 203.85 40.4318 202.96C40.7538 202.066 41.2159 201.384 41.8182 200.915C42.4242 200.441 43.1515 200.205 44 200.205C44.8485 200.205 45.5739 200.441 46.1761 200.915C46.7822 201.384 47.2443 202.066 47.5625 202.96C47.8845 203.85 48.0455 204.924 48.0455 206.182C48.0455 207.447 47.8864 208.527 47.5682 209.42C47.25 210.311 46.7898 210.991 46.1875 211.46C45.5852 211.926 44.8561 212.159 44 212.159ZM44 210.909C44.8485 210.909 45.5076 210.5 45.9773 209.682C46.447 208.864 46.6818 207.697 46.6818 206.182C46.6818 205.174 46.5739 204.316 46.358 203.608C46.1458 202.9 45.839 202.36 45.4375 201.989C45.0398 201.617 44.5606 201.432 44 201.432C43.1591 201.432 42.5019 201.847 42.0284 202.676C41.5549 203.502 41.3182 204.67 41.3182 206.182C41.3182 207.189 41.4242 208.045 41.6364 208.75C41.8485 209.455 42.1534 209.991 42.5511 210.358C42.9527 210.725 43.4356 210.909 44 210.909Z" fill="black"/>
<path d="M24.1065 314.159C23.4399 314.159 22.8395 314.027 22.3054 313.761C21.7713 313.496 21.3433 313.133 21.0213 312.67C20.6993 312.208 20.5232 311.682 20.4929 311.091H21.8565C21.9096 311.617 22.1482 312.053 22.5724 312.398C23.0005 312.739 23.5118 312.909 24.1065 312.909C24.5838 312.909 25.008 312.797 25.3793 312.574C25.7543 312.35 26.0478 312.044 26.2599 311.653C26.4759 311.259 26.5838 310.814 26.5838 310.318C26.5838 309.811 26.4721 309.358 26.2486 308.96C26.0289 308.559 25.7259 308.242 25.3395 308.011C24.9531 307.78 24.5118 307.663 24.0156 307.659C23.6596 307.655 23.294 307.71 22.919 307.824C22.544 307.934 22.2353 308.076 21.9929 308.25L20.6747 308.091L21.3793 302.364H27.4247V303.614H22.5611L22.152 307.045H22.2202C22.4588 306.856 22.758 306.699 23.1179 306.574C23.4777 306.449 23.8527 306.386 24.2429 306.386C24.955 306.386 25.5895 306.557 26.1463 306.898C26.7069 307.235 27.1463 307.697 27.4645 308.284C27.7865 308.871 27.9474 309.542 27.9474 310.295C27.9474 311.038 27.7808 311.701 27.4474 312.284C27.1179 312.864 26.6634 313.322 26.0838 313.659C25.5043 313.992 24.8452 314.159 24.1065 314.159ZM34 314.159C33.1439 314.159 32.4148 313.926 31.8125 313.46C31.2102 312.991 30.75 312.311 30.4318 311.42C30.1136 310.527 29.9545 309.447 29.9545 308.182C29.9545 306.924 30.1136 305.85 30.4318 304.96C30.7538 304.066 31.2159 303.384 31.8182 302.915C32.4242 302.441 33.1515 302.205 34 302.205C34.8485 302.205 35.5739 302.441 36.1761 302.915C36.7822 303.384 37.2443 304.066 37.5625 304.96C37.8845 305.85 38.0455 306.924 38.0455 308.182C38.0455 309.447 37.8864 310.527 37.5682 311.42C37.25 312.311 36.7898 312.991 36.1875 313.46C35.5852 313.926 34.8561 314.159 34 314.159ZM34 312.909C34.8485 312.909 35.5076 312.5 35.9773 311.682C36.447 310.864 36.6818 309.697 36.6818 308.182C36.6818 307.174 36.5739 306.316 36.358 305.608C36.1458 304.9 35.839 304.36 35.4375 303.989C35.0398 303.617 34.5606 303.432 34 303.432C33.1591 303.432 32.5019 303.847 32.0284 304.676C31.5549 305.502 31.3182 306.67 31.3182 308.182C31.3182 309.189 31.4242 310.045 31.6364 310.75C31.8485 311.455 32.1534 311.991 32.5511 312.358C32.9527 312.725 33.4356 312.909 34 312.909ZM44 314.159C43.1439 314.159 42.4148 313.926 41.8125 313.46C41.2102 312.991 40.75 312.311 40.4318 311.42C40.1136 310.527 39.9545 309.447 39.9545 308.182C39.9545 306.924 40.1136 305.85 40.4318 304.96C40.7538 304.066 41.2159 303.384 41.8182 302.915C42.4242 302.441 43.1515 302.205 44 302.205C44.8485 302.205 45.5739 302.441 46.1761 302.915C46.7822 303.384 47.2443 304.066 47.5625 304.96C47.8845 305.85 48.0455 306.924 48.0455 308.182C48.0455 309.447 47.8864 310.527 47.5682 311.42C47.25 312.311 46.7898 312.991 46.1875 313.46C45.5852 313.926 44.8561 314.159 44 314.159ZM44 312.909C44.8485 312.909 45.5076 312.5 45.9773 311.682C46.447 310.864 46.6818 309.697 46.6818 308.182C46.6818 307.174 46.5739 306.316 46.358 305.608C46.1458 304.9 45.839 304.36 45.4375 303.989C45.0398 303.617 44.5606 303.432 44 303.432C43.1591 303.432 42.5019 303.847 42.0284 304.676C41.5549 305.502 41.3182 306.67 41.3182 308.182C41.3182 309.189 41.4242 310.045 41.6364 310.75C41.8485 311.455 42.1534 311.991 42.5511 312.358C42.9527 312.725 43.4356 312.909 44 312.909Z" fill="black"/>
<path d="M20.7827 365V363.977L24.6236 359.773C25.0743 359.28 25.4455 358.852 25.7372 358.489C26.0289 358.121 26.2448 357.777 26.3849 357.455C26.5289 357.129 26.6009 356.788 26.6009 356.432C26.6009 356.023 26.5024 355.669 26.3054 355.369C26.1122 355.07 25.8471 354.839 25.5099 354.676C25.1728 354.513 24.794 354.432 24.3736 354.432C23.9266 354.432 23.5365 354.525 23.2031 354.71C22.8736 354.892 22.6179 355.148 22.4361 355.477C22.258 355.807 22.169 356.193 22.169 356.636H20.8281C20.8281 355.955 20.9853 355.356 21.2997 354.841C21.6141 354.326 22.0421 353.924 22.5838 353.636C23.1293 353.348 23.741 353.205 24.419 353.205C25.1009 353.205 25.705 353.348 26.2315 353.636C26.758 353.924 27.1709 354.312 27.4702 354.801C27.7694 355.29 27.919 355.833 27.919 356.432C27.919 356.86 27.8414 357.278 27.6861 357.688C27.5346 358.093 27.2694 358.545 26.8906 359.045C26.5156 359.542 25.9948 360.148 25.3281 360.864L22.7145 363.659V363.75H28.1236V365H20.7827ZM34.1065 365.159C33.4399 365.159 32.8395 365.027 32.3054 364.761C31.7713 364.496 31.3433 364.133 31.0213 363.67C30.6993 363.208 30.5232 362.682 30.4929 362.091H31.8565C31.9096 362.617 32.1482 363.053 32.5724 363.398C33.0005 363.739 33.5118 363.909 34.1065 363.909C34.5838 363.909 35.008 363.797 35.3793 363.574C35.7543 363.35 36.0478 363.044 36.2599 362.653C36.4759 362.259 36.5838 361.814 36.5838 361.318C36.5838 360.811 36.4721 360.358 36.2486 359.96C36.0289 359.559 35.7259 359.242 35.3395 359.011C34.9531 358.78 34.5118 358.663 34.0156 358.659C33.6596 358.655 33.294 358.71 32.919 358.824C32.544 358.934 32.2353 359.076 31.9929 359.25L30.6747 359.091L31.3793 353.364H37.4247V354.614H32.5611L32.152 358.045H32.2202C32.4588 357.856 32.758 357.699 33.1179 357.574C33.4777 357.449 33.8527 357.386 34.2429 357.386C34.955 357.386 35.5895 357.557 36.1463 357.898C36.7069 358.235 37.1463 358.697 37.4645 359.284C37.7865 359.871 37.9474 360.542 37.9474 361.295C37.9474 362.038 37.7808 362.701 37.4474 363.284C37.1179 363.864 36.6634 364.322 36.0838 364.659C35.5043 364.992 34.8452 365.159 34.1065 365.159ZM44 365.159C43.1439 365.159 42.4148 364.926 41.8125 364.46C41.2102 363.991 40.75 363.311 40.4318 362.42C40.1136 361.527 39.9545 360.447 39.9545 359.182C39.9545 357.924 40.1136 356.85 40.4318 355.96C40.7538 355.066 41.2159 354.384 41.8182 353.915C42.4242 353.441 43.1515 353.205 44 353.205C44.8485 353.205 45.5739 353.441 46.1761 353.915C46.7822 354.384 47.2443 355.066 47.5625 355.96C47.8845 356.85 48.0455 357.924 48.0455 359.182C48.0455 360.447 47.8864 361.527 47.5682 362.42C47.25 363.311 46.7898 363.991 46.1875 364.46C45.5852 364.926 44.8561 365.159 44 365.159ZM44 363.909C44.8485 363.909 45.5076 363.5 45.9773 362.682C46.447 361.864 46.6818 360.697 46.6818 359.182C46.6818 358.174 46.5739 357.316 46.358 356.608C46.1458 355.9 45.839 355.36 45.4375 354.989C45.0398 354.617 44.5606 354.432 44 354.432C43.1591 354.432 42.5019 354.847 42.0284 355.676C41.5549 356.502 41.3182 357.67 41.3182 359.182C41.3182 360.189 41.4242 361.045 41.6364 361.75C41.8485 362.455 42.1534 362.991 42.5511 363.358C42.9527 363.725 43.4356 363.909 44 363.909Z" fill="black"/>
<line x1="55" y1="366.5" x2="942" y2="366.5" stroke="#D9D9D9"/>
<line x1="55" y1="313.5" x2="942" y2="313.5" stroke="#D9D9D9"/>
<line x1="56" y1="260.5" x2="943" y2="260.5" stroke="#D9D9D9"/>
<line x1="56" y1="207.5" x2="943" y2="207.5" stroke="#D9D9D9"/>
<line x1="56" y1="154.5" x2="943" y2="154.5" stroke="#D9D9D9"/>
<line x1="55" y1="101.5" x2="942" y2="101.5" stroke="#D9D9D9"/>
<line x1="182.5" y1="419.036" x2="182.5" y2="47.0001" stroke="#D9D9D9"/>
<line x1="817.5" y1="420.036" x2="817.5" y2="48.0001" stroke="#D9D9D9"/>
<line x1="690.5" y1="419.036" x2="690.5" y2="47.0001" stroke="#D9D9D9"/>
<line x1="563.5" y1="419.036" x2="563.5" y2="47.0001" stroke="#D9D9D9"/>
<line x1="436.5" y1="419.036" x2="436.5" y2="47.0001" stroke="#D9D9D9"/>
<line x1="309.5" y1="419.036" x2="309.5" y2="47.0001" stroke="#D9D9D9"/>
<path d="M56 330L182.5 287L309 324L563 274.5L691.5 221L816.5 129.5L940 83V423H56V330Z" fill="#084DFF"/>
<path d="M1.59801 19V4.45455H6.92472C7.95691 4.45455 8.81155 4.625 9.48864 4.96591C10.1657 5.30208 10.6723 5.759 11.0085 6.33665C11.3447 6.90956 11.5128 7.55587 11.5128 8.27557C11.5128 8.88163 11.4015 9.39299 11.179 9.80966C10.9564 10.2216 10.6581 10.553 10.2841 10.804C9.91477 11.0502 9.50758 11.2301 9.0625 11.3438V11.4858C9.54545 11.5095 10.0166 11.6657 10.4759 11.9545C10.9399 12.2386 11.3234 12.6435 11.6264 13.169C11.9295 13.6946 12.081 14.3338 12.081 15.0866C12.081 15.83 11.9058 16.4976 11.5554 17.0895C11.2098 17.6766 10.6747 18.143 9.95028 18.4886C9.22585 18.8295 8.30019 19 7.1733 19H1.59801ZM3.79261 17.1179H6.96023C8.01136 17.1179 8.7642 16.9143 9.21875 16.5071C9.6733 16.0999 9.90057 15.5909 9.90057 14.9801C9.90057 14.5208 9.78456 14.0994 9.55256 13.7159C9.32055 13.3324 8.98911 13.027 8.55824 12.7997C8.1321 12.5724 7.62547 12.4588 7.03835 12.4588H3.79261V17.1179ZM3.79261 10.7472H6.73295C7.22538 10.7472 7.66809 10.6525 8.06108 10.4631C8.45881 10.2737 8.77367 10.0085 9.00568 9.66761C9.24242 9.32197 9.3608 8.91477 9.3608 8.44602C9.3608 7.8447 9.15009 7.34044 8.72869 6.93324C8.30729 6.52604 7.66099 6.32244 6.78977 6.32244H3.79261V10.7472ZM16.5945 16.0241L21.4027 8.09091H23.6896V19H21.6087V11.0597L16.8217 19H14.5135V8.09091H16.5945V16.0241ZM25.8984 16.1165H28.0717C28.1001 16.5616 28.3014 16.9048 28.6754 17.1463C29.0542 17.3878 29.5443 17.5085 30.1456 17.5085C30.7564 17.5085 31.2772 17.3783 31.7081 17.1179C32.139 16.8527 32.3544 16.4432 32.3544 15.8892C32.3544 15.5578 32.2715 15.2689 32.1058 15.0227C31.9448 14.7718 31.7152 14.5777 31.4169 14.4403C31.1233 14.303 30.7753 14.2344 30.3729 14.2344H28.5973V12.5653H30.3729C30.9742 12.5653 31.424 12.428 31.7223 12.1534C32.0206 11.8788 32.1697 11.5355 32.1697 11.1236C32.1697 10.6785 32.0088 10.321 31.6868 10.0511C31.3696 9.77652 30.9268 9.6392 30.3587 9.6392C29.781 9.6392 29.3004 9.76941 28.9169 10.0298C28.5334 10.2855 28.3321 10.617 28.3132 11.0241H26.1683C26.1825 10.4134 26.3672 9.87831 26.7223 9.41903C27.0821 8.95502 27.5651 8.59517 28.1712 8.33949C28.782 8.07907 29.4756 7.94886 30.2521 7.94886C31.0618 7.94886 31.7625 8.07907 32.3544 8.33949C32.9463 8.59991 33.4032 8.95975 33.7251 9.41903C34.0518 9.87831 34.2152 10.4062 34.2152 11.0028C34.2152 11.6042 34.0353 12.0966 33.6754 12.4801C33.3203 12.8589 32.8563 13.1312 32.2834 13.2969V13.4105C32.7048 13.4389 33.0788 13.5668 33.4055 13.794C33.7322 14.0213 33.9879 14.322 34.1726 14.696C34.3572 15.0701 34.4496 15.4938 34.4496 15.9673C34.4496 16.6349 34.2649 17.2126 33.8956 17.7003C33.531 18.188 33.0244 18.5644 32.3757 18.8295C31.7318 19.09 30.9955 19.2202 30.1669 19.2202C29.362 19.2202 28.6399 19.0947 28.0007 18.8438C27.3662 18.5881 26.862 18.2282 26.4879 17.7642C26.1186 17.3002 25.9221 16.7509 25.8984 16.1165ZM38.7234 16.0241L43.5316 8.09091H45.8185V19H43.7376V11.0597L38.9506 19H36.6424V8.09091H38.7234V16.0241ZM47.3207 9.9233V8.09091H56.5252V9.9233H52.967V19H50.8931V9.9233H47.3207ZM60.3693 11.8409H63.5369C64.8722 11.8409 65.8996 12.1723 66.6193 12.8352C67.339 13.4981 67.6989 14.3527 67.6989 15.3991C67.6989 16.081 67.5379 16.6941 67.2159 17.2386C66.8939 17.7831 66.4228 18.214 65.8026 18.5312C65.1823 18.8438 64.4271 19 63.5369 19H58.7713V8.09091H60.8523V17.1676H63.5369C64.1477 17.1676 64.6496 17.009 65.0426 16.6918C65.4356 16.3698 65.6321 15.9602 65.6321 15.4631C65.6321 14.9375 65.4356 14.509 65.0426 14.1776C64.6496 13.8414 64.1477 13.6733 63.5369 13.6733H60.3693V11.8409ZM69.2472 19V8.09091H71.3707V19H69.2472Z" fill="black"/>
</svg>
