<svg width="62" height="62" viewBox="0 0 62 62" fill="none" xmlns="http://www.w3.org/2000/svg">
<path d="M55.5417 10.3335H48.6528V15.5001C48.6528 15.9977 48.5548 16.4904 48.3644 16.9501C48.174 17.4098 47.8949 17.8274 47.543 18.1793C47.1912 18.5311 46.7735 18.8102 46.3138 19.0006C45.8541 19.191 45.3615 19.289 44.8639 19.289C44.3663 19.289 43.8736 19.191 43.4139 19.0006C42.9543 18.8102 42.5366 18.5311 42.1847 18.1793C41.8329 17.8274 41.5538 17.4098 41.3634 16.9501C41.173 16.4904 41.075 15.9977 41.075 15.5001V10.3335H21.0111V15.5001C21.0111 16.505 20.6119 17.4687 19.9014 18.1793C19.1908 18.8898 18.2271 19.289 17.2222 19.289C16.2173 19.289 15.2536 18.8898 14.5431 18.1793C13.8325 17.4687 13.4333 16.505 13.4333 15.5001V10.3335H6.54444C6.13459 10.3288 5.72797 10.4064 5.34862 10.5616C4.96928 10.7168 4.62491 10.9465 4.33589 11.2371C4.04687 11.5278 3.81906 11.8734 3.66594 12.2536C3.51283 12.6338 3.43751 13.0409 3.44444 13.4507V51.994C3.4376 52.3966 3.51014 52.7966 3.65791 53.1711C3.80567 53.5457 4.02578 53.8875 4.30566 54.1769C4.58554 54.4664 4.9197 54.6979 5.28906 54.8582C5.65842 55.0185 6.05574 55.1045 6.45833 55.1112H55.5417C55.9443 55.1045 56.3416 55.0185 56.7109 54.8582C57.0803 54.6979 57.4145 54.4664 57.6943 54.1769C57.9742 53.8875 58.1943 53.5457 58.3421 53.1711C58.4899 52.7966 58.5624 52.3966 58.5555 51.994V13.4507C58.5624 13.0481 58.4899 12.6481 58.3421 12.2735C58.1943 11.899 57.9742 11.5572 57.6943 11.2677C57.4145 10.9783 57.0803 10.7468 56.7109 10.5865C56.3416 10.4262 55.9443 10.3402 55.5417 10.3335ZM17.2222 44.7779H13.7778V41.3335H17.2222V44.7779ZM17.2222 36.1668H13.7778V32.7223H17.2222V36.1668ZM17.2222 27.5557H13.7778V24.1112H17.2222V27.5557ZM27.5556 44.7779H24.1111V41.3335H27.5556V44.7779ZM27.5556 36.1668H24.1111V32.7223H27.5556V36.1668ZM27.5556 27.5557H24.1111V24.1112H27.5556V27.5557ZM37.8889 44.7779H34.4444V41.3335H37.8889V44.7779ZM37.8889 36.1668H34.4444V32.7223H37.8889V36.1668ZM37.8889 27.5557H34.4444V24.1112H37.8889V27.5557ZM48.2222 44.7779H44.7778V41.3335H48.2222V44.7779ZM48.2222 36.1668H44.7778V32.7223H48.2222V36.1668ZM48.2222 27.5557H44.7778V24.1112H48.2222V27.5557Z" fill="#084DFF"/>
<path d="M17.2222 17.2221C17.679 17.2221 18.117 17.0407 18.44 16.7177C18.763 16.3947 18.9444 15.9567 18.9444 15.4999V5.16656C18.9444 4.7098 18.763 4.27174 18.44 3.94876C18.117 3.62578 17.679 3.44434 17.2222 3.44434C16.7655 3.44434 16.3274 3.62578 16.0044 3.94876C15.6814 4.27174 15.5 4.7098 15.5 5.16656V15.4999C15.5 15.9567 15.6814 16.3947 16.0044 16.7177C16.3274 17.0407 16.7655 17.2221 17.2222 17.2221Z" fill="#084DFF"/>
<path d="M44.7778 17.2221C45.2345 17.2221 45.6726 17.0407 45.9956 16.7177C46.3185 16.3947 46.5 15.9567 46.5 15.4999V5.16656C46.5 4.7098 46.3185 4.27174 45.9956 3.94876C45.6726 3.62578 45.2345 3.44434 44.7778 3.44434C44.321 3.44434 43.8829 3.62578 43.56 3.94876C43.237 4.27174 43.0555 4.7098 43.0555 5.16656V15.4999C43.0555 15.9567 43.237 16.3947 43.56 16.7177C43.8829 17.0407 44.321 17.2221 44.7778 17.2221Z" fill="#084DFF"/>
</svg>
