<svg width="32" height="42" viewBox="0 0 32 42" fill="none" xmlns="http://www.w3.org/2000/svg">
<path d="M31.5727 10.3011C31.8455 10.5761 32 10.9475 32 11.3371V39.6089C32 40.4204 31.35 41.0759 30.5455 41.0759H1.45455C0.65 41.0759 0 40.4204 0 39.6089V1.467C0 0.655565 0.65 0 1.45455 0H20.7591C21.1455 0 21.5182 0.155869 21.7909 0.430931L31.5727 10.3011ZM28.6455 12.011L20.0909 3.38326V12.011H28.6455ZM18.8791 18.972L16.0964 23.6618L13.2864 18.9701C13.2378 18.8891 13.1693 18.8221 13.0875 18.7756C13.0057 18.7291 12.9134 18.7047 12.8195 18.7047H11.0723C10.9693 18.7047 10.8685 18.7341 10.7814 18.7895C10.7207 18.828 10.6682 18.8782 10.6268 18.9373C10.5854 18.9963 10.556 19.0629 10.5401 19.1334C10.5243 19.204 10.5224 19.2769 10.5345 19.3482C10.5467 19.4194 10.5726 19.4875 10.6109 19.5487L14.3536 25.5276L10.5605 31.6147C10.5058 31.7025 10.4768 31.804 10.4768 31.9077C10.4768 32.0536 10.5343 32.1935 10.6366 32.2967C10.7389 32.3998 10.8776 32.4578 11.0223 32.4578H12.5886C12.6817 32.4578 12.7731 32.4337 12.8544 32.388C12.9356 32.3423 13.0039 32.2763 13.0527 32.1965L15.9027 27.5447L18.7345 32.1956C18.7834 32.2757 18.8517 32.3419 18.9331 32.3878C19.0146 32.4337 19.1063 32.4578 19.1995 32.4578H20.9032C21.0076 32.4578 21.1098 32.4276 21.1977 32.3707C21.258 32.3317 21.3101 32.2811 21.351 32.2218C21.3919 32.1624 21.4208 32.0956 21.4361 32.025C21.4514 31.9544 21.4527 31.8815 21.44 31.8104C21.4274 31.7393 21.401 31.6714 21.3623 31.6106L17.5518 25.6257L21.4291 19.5528C21.4856 19.4639 21.5156 19.3604 21.5155 19.2548C21.5155 19.1089 21.458 18.969 21.3557 18.8658C21.2534 18.7626 21.1147 18.7047 20.97 18.7047H19.3473C19.253 18.7047 19.1604 18.7294 19.0784 18.7764C18.9964 18.8233 18.9279 18.8908 18.8795 18.9724L18.8791 18.972Z" fill="#084DFF"/>
</svg>
