<svg width="85" height="85" viewBox="0 0 85 85" fill="none" xmlns="http://www.w3.org/2000/svg">
<path fill-rule="evenodd" clip-rule="evenodd" d="M25.5 8.5C23.2457 8.5 21.0837 9.39553 19.4896 10.9896C17.8955 12.5837 17 14.7457 17 17V68C17 70.2543 17.8955 72.4164 19.4896 74.0104C21.0837 75.6045 23.2457 76.5 25.5 76.5H59.5C61.7543 76.5 63.9164 75.6045 65.5104 74.0104C67.1045 72.4164 68 70.2543 68 68V31.5095C67.9995 29.2553 67.1037 27.0937 65.5095 25.5L51 10.9905C49.4063 9.39633 47.2447 8.50048 44.9905 8.5H25.5ZM34 51C34 49.8728 33.5522 48.7918 32.7552 47.9948C31.9582 47.1978 30.8772 46.75 29.75 46.75C28.6228 46.75 27.5418 47.1978 26.7448 47.9948C25.9478 48.7918 25.5 49.8728 25.5 51V63.75C25.5 64.8772 25.9478 65.9582 26.7448 66.7552C27.5418 67.5522 28.6228 68 29.75 68C30.8772 68 31.9582 67.5522 32.7552 66.7552C33.5522 65.9582 34 64.8772 34 63.75V51ZM42.5 38.25C43.6272 38.25 44.7082 38.6978 45.5052 39.4948C46.3022 40.2918 46.75 41.3728 46.75 42.5V63.75C46.75 64.8772 46.3022 65.9582 45.5052 66.7552C44.7082 67.5522 43.6272 68 42.5 68C41.3728 68 40.2918 67.5522 39.4948 66.7552C38.6978 65.9582 38.25 64.8772 38.25 63.75V42.5C38.25 41.3728 38.6978 40.2918 39.4948 39.4948C40.2918 38.6978 41.3728 38.25 42.5 38.25ZM59.5 34C59.5 32.8728 59.0522 31.7918 58.2552 30.9948C57.4582 30.1978 56.3772 29.75 55.25 29.75C54.1228 29.75 53.0418 30.1978 52.2448 30.9948C51.4478 31.7918 51 32.8728 51 34V63.75C51 64.8772 51.4478 65.9582 52.2448 66.7552C53.0418 67.5522 54.1228 68 55.25 68C56.3772 68 57.4582 67.5522 58.2552 66.7552C59.0522 65.9582 59.5 64.8772 59.5 63.75V34Z" fill="#084DFF"/>
</svg>
