<svg width="59" height="50" viewBox="0 0 59 50" fill="none" xmlns="http://www.w3.org/2000/svg">
<path d="M53.7564 3.89404H5.16032C3.96721 3.89404 3 4.86304 3 6.05837V44.1415C3 45.3368 3.96721 46.3058 5.16032 46.3058H53.7564C54.9495 46.3058 55.9167 45.3368 55.9167 44.1415V6.05837C55.9167 4.86304 54.9495 3.89404 53.7564 3.89404Z" fill="#084DFF" stroke="#084DFF" stroke-width="5.83333"/>
<path d="M18.875 18.4046C16.2292 14.4975 11.596 17.0655 11.9282 21.0829C12.2604 25.1004 17.5521 25.1004 17.8825 29.1179C18.2131 33.1353 13.5833 35.7033 10.9375 31.7962" stroke="white" stroke-width="5.83333" stroke-linecap="round" stroke-linejoin="round"/>
<path d="M32.1042 17.1484H26.8125V34.3782H32.1042" stroke="white" stroke-width="5.83333" stroke-linecap="round" stroke-linejoin="round"/>
<path d="M26.8125 26.4259H32.1042" stroke="white" stroke-width="5.83333" stroke-linecap="round" stroke-linejoin="round"/>
<path d="M47.9792 21.1245C47.9792 18.9285 46.2024 17.1484 44.0105 17.1484C41.8186 17.1484 40.0417 18.9285 40.0417 21.1245V30.402C40.0417 32.598 41.8186 34.3782 44.0105 34.3782C46.2024 34.3782 47.9792 32.598 47.9792 30.402V21.1245Z" stroke="white" stroke-width="5.83333" stroke-linecap="round" stroke-linejoin="round"/>
</svg>
