<svg width="66" height="63" viewBox="0 0 66 63" fill="none" xmlns="http://www.w3.org/2000/svg">
<path d="M23.1 27.7961C25.7107 27.7961 28.2628 26.9865 30.4335 25.4698C32.6043 23.9531 34.2961 21.7973 35.2952 19.275C36.2943 16.7528 36.5557 13.9774 36.0464 11.2999C35.537 8.62229 34.2799 6.16278 32.4338 4.23235C30.5878 2.30192 28.2357 0.987289 25.6752 0.454686C23.1146 -0.0779174 20.4606 0.195434 18.0486 1.24017C15.6366 2.28491 13.575 4.05411 12.1246 6.32405C10.6742 8.594 9.9 11.2627 9.9 13.9928C9.9 17.6536 11.2907 21.1645 13.7662 23.7532C16.2417 26.3418 19.5991 27.7961 23.1 27.7961ZM49.5 34.6977C51.458 34.6977 53.3721 34.0905 55.0001 32.953C56.6282 31.8154 57.8971 30.1986 58.6464 28.3069C59.3957 26.4153 59.5918 24.3337 59.2098 22.3256C58.8278 20.3174 57.8849 18.4727 56.5004 17.0249C55.1158 15.5771 53.3518 14.5911 51.4314 14.1917C49.511 13.7922 47.5204 13.9972 45.7114 14.7808C43.9024 15.5643 42.3563 16.8912 41.2685 18.5937C40.1806 20.2962 39.6 22.2977 39.6 24.3452C39.6 27.0909 40.643 29.7241 42.4996 31.6655C44.3563 33.607 46.8744 34.6977 49.5 34.6977ZM62.7 58.8535C63.5752 58.8535 64.4146 58.4899 65.0335 57.8427C65.6523 57.1956 66 56.3179 66 55.4026C65.9974 52.1775 65.1303 49.0177 63.4973 46.2817C61.8643 43.5457 59.5306 41.3432 56.7611 39.9239C53.9917 38.5046 50.8972 37.9254 47.8288 38.252C44.7605 38.5787 41.8412 39.7981 39.402 41.7719C36.1697 38.4051 32.0564 36.1146 27.5808 35.1892C23.1053 34.2638 18.4679 34.7449 14.2534 36.572C10.039 38.399 6.43636 41.4901 3.89975 45.4554C1.36313 49.4207 0.00617164 54.0827 0 58.8535C0 59.7687 0.347677 60.6464 0.966547 61.2936C1.58542 61.9407 2.42479 62.3043 3.3 62.3043H42.9C43.7752 62.3043 44.6146 61.9407 45.2335 61.2936C45.8523 60.6464 46.2 59.7687 46.2 58.8535" fill="#084DFF"/>
</svg>
