<svg width="70" height="70" viewBox="0 0 70 70" fill="none" xmlns="http://www.w3.org/2000/svg">
<path d="M61.7851 11.6665H8.21471C6.89947 11.6665 5.83325 12.7327 5.83325 14.048V55.9517C5.83325 57.267 6.89947 58.3332 8.21471 58.3332H61.7851C63.1004 58.3332 64.1666 57.267 64.1666 55.9517V14.048C64.1666 12.7327 63.1004 11.6665 61.7851 11.6665Z" fill="#084DFF" stroke="#084DFF" stroke-width="4"/>
<path d="M23.3333 27.6324C20.4166 23.3332 15.3092 26.1589 15.6754 30.5794C16.0416 34.9999 21.8749 34.9999 22.2392 39.4204C22.6036 43.8409 17.4999 46.6665 14.5833 42.3674" stroke="white" stroke-width="4" stroke-linecap="round" stroke-linejoin="round"/>
<path d="M37.9166 26.25H32.0833V45.2083H37.9166" stroke="white" stroke-width="4" stroke-linecap="round" stroke-linejoin="round"/>
<path d="M32.0833 36.458H37.9166" stroke="white" stroke-width="4" stroke-linecap="round" stroke-linejoin="round"/>
<path d="M55.4165 30.625C55.4165 28.2088 53.4577 26.25 51.0415 26.25C48.6253 26.25 46.6665 28.2088 46.6665 30.625V40.8333C46.6665 43.2496 48.6253 45.2083 51.0415 45.2083C53.4577 45.2083 55.4165 43.2496 55.4165 40.8333V30.625Z" stroke="white" stroke-width="4" stroke-linecap="round" stroke-linejoin="round"/>
</svg>
