<svg width="70" height="70" viewBox="0 0 70 70" fill="none" xmlns="http://www.w3.org/2000/svg">
<path d="M59.2433 52.5993L50.4495 22.0472C51.1409 21.5124 51.7028 20.8286 52.0935 20.0467C52.4843 19.2648 52.6937 18.4048 52.7063 17.5308C52.7188 16.6568 52.5342 15.7912 52.1662 14.9984C51.7982 14.2055 51.2561 13.5058 50.5804 12.9513C49.9047 12.3968 49.1127 12.0018 48.2633 11.7955C47.4139 11.5893 46.5289 11.5771 45.6741 11.76C44.8194 11.9429 44.0168 12.3161 43.3262 12.8519C42.6355 13.3877 42.0746 14.0723 41.6849 14.8547L17.4533 10.541C17.2738 9.5835 16.8571 8.68628 16.2414 7.93136C15.6257 7.17645 14.8306 6.58793 13.9287 6.21963C13.0268 5.85133 12.047 5.715 11.0789 5.8231C10.1107 5.9312 9.18509 6.28029 8.38667 6.83843C7.58824 7.39658 6.94248 8.14598 6.50843 9.01811C6.07438 9.89024 5.86589 10.8573 5.90202 11.8308C5.93815 12.8043 6.21776 13.7532 6.71527 14.5907C7.21278 15.4283 7.91232 16.1277 8.74993 16.6252V53.311C7.71009 53.9137 6.88273 54.824 6.38186 55.9165C5.88099 57.009 5.73125 58.2299 5.95328 59.4111C6.17531 60.5923 6.75818 61.6755 7.62157 62.5116C8.48497 63.3477 9.5864 63.8954 10.7741 64.0793C11.0689 64.1315 11.3673 64.1607 11.6666 64.1668C12.6807 64.1645 13.6766 63.8967 14.5552 63.3901C15.4337 62.8835 16.1644 62.1558 16.6745 61.2793H53.267C53.8899 62.3413 54.8343 63.1776 55.9637 63.6676C57.0932 64.1575 58.3491 64.2756 59.5501 64.0048C60.7511 63.7341 61.8349 63.0884 62.6448 62.1612C63.4547 61.234 63.9489 60.0733 64.0558 58.8468C64.0703 58.6747 64.1083 58.5085 64.1083 58.3335C64.1063 56.9568 63.6165 55.6253 62.7258 54.5755C61.8351 53.5257 60.6013 52.8256 59.2433 52.5993ZM16.8408 55.691C16.6964 55.4054 16.5286 55.1322 16.3391 54.8743L27.5537 40.5331C28.2142 40.667 28.8864 40.7354 29.5603 40.7372C30.4984 40.7236 31.43 40.5793 32.3283 40.3085L35.9508 44.6193C35.335 45.6962 35.0075 46.9138 34.9999 48.1543C34.9999 48.2652 35.0291 48.3672 35.032 48.4752C35.1102 50.3488 35.909 52.1199 37.2616 53.4187C38.6143 54.7176 40.4163 55.4439 42.2916 55.446C44.0882 55.445 45.8195 54.7718 47.1449 53.5589L52.6953 56.7643C52.6778 56.8168 52.6458 56.8664 52.6312 56.9218H17.3103C17.1984 56.4959 17.041 56.0832 16.8408 55.691ZM43.747 22.3768C44.899 23.1613 46.3127 23.4628 47.6845 23.2168L56.2303 52.8881C55.9489 53.004 55.6769 53.1415 55.4166 53.2993L49.3558 49.7993C49.456 49.3828 49.5194 48.9582 49.5453 48.5306C49.5512 48.4052 49.5833 48.2856 49.5833 48.1543C49.5878 46.8001 49.2136 45.4716 48.5029 44.3189C47.7923 43.1661 46.7734 42.235 45.5615 41.6307C44.3496 41.0265 42.9929 40.7731 41.6446 40.8992C40.2962 41.0252 39.01 41.5258 37.9312 42.3443L35.1603 39.0485C37.1773 37.732 38.6612 35.7421 39.3477 33.4334C40.0341 31.1247 39.8784 28.6472 38.9083 26.4427L43.747 22.3768ZM17.2199 13.5277L41.0724 17.7714C41.1161 18.6114 41.3431 19.4317 41.7374 20.1747L37.2808 23.9168C35.7207 22.0533 33.5382 20.8181 31.1374 20.44C28.7366 20.062 26.2801 20.5666 24.2228 21.8606L17.2228 13.5277H17.2199ZM11.7308 17.4652C13.1024 17.4606 14.4277 16.9686 15.4699 16.0768L21.9478 23.7856C20.925 24.92 20.173 26.2717 19.7486 27.739C19.3241 29.2063 19.2382 30.7507 19.4975 32.256C19.7567 33.7613 20.3542 35.1881 21.245 36.4288C22.1358 37.6696 23.2966 38.692 24.6399 39.4189L14.0174 53.0018C13.2968 52.683 12.5187 52.5143 11.7308 52.506V17.4652Z" fill="#084DFF"/>
</svg>
