<svg width="70" height="70" viewBox="0 0 70 70" fill="none" xmlns="http://www.w3.org/2000/svg">
<path d="M20.1543 16.0415L26.8626 22.7207L22.7209 26.8624L16.0418 20.154L9.36261 26.8624L5.22095 22.7207L11.9293 16.0415L5.22095 9.36237L9.36261 5.2207L16.0418 11.929L22.7209 5.2207L26.8626 9.36237L20.1543 16.0415ZM64.7793 47.279L60.6376 43.1374L53.9584 49.8457L47.2793 43.1374L43.1376 47.279L49.8459 53.9582L43.1376 60.6374L47.2793 64.779L53.9584 58.0707L60.6376 64.779L64.7793 60.6374L58.0709 53.9582L64.7793 47.279ZM59.5001 19.9207L50.1084 32.0832L45.5001 28.379L48.9126 24.004C44.56 24.8882 40.4996 26.8529 37.1052 29.7173C33.7107 32.5817 31.0912 36.2538 29.4876 40.3957C32.0263 42.2264 33.8271 44.904 34.5654 47.9456C35.3036 50.9872 34.9306 54.1924 33.5137 56.9832C32.0968 59.774 29.7292 61.9665 26.838 63.1654C23.9468 64.3642 20.7224 64.4904 17.7464 63.5212C14.7703 62.552 12.2386 60.5512 10.6079 57.8797C8.97717 55.2082 8.35481 52.0419 8.85306 48.952C9.35132 45.862 10.9374 43.0518 13.3252 41.0283C15.713 39.0048 18.7453 37.9012 21.8751 37.9165C22.6393 37.9196 23.4013 37.9978 24.1501 38.1499C26.1708 33.135 29.3973 28.6961 33.5437 25.2263C37.6902 21.7566 42.6284 19.3632 47.9209 18.2582L43.7501 15.1082L47.4543 10.4999L59.5001 19.9207ZM29.1668 51.0415C29.1668 49.5994 28.7391 48.1896 27.9379 46.9905C27.1367 45.7914 25.9979 44.8568 24.6655 44.3049C23.3331 43.753 21.867 43.6086 20.4526 43.89C19.0381 44.1713 17.7389 44.8658 16.7191 45.8855C15.6994 46.9053 15.0049 48.2046 14.7236 49.619C14.4422 51.0334 14.5866 52.4996 15.1385 53.8319C15.6904 55.1643 16.625 56.3031 17.8241 57.1043C19.0232 57.9055 20.433 58.3332 21.8751 58.3332C23.809 58.3332 25.6636 57.565 27.0311 56.1975C28.3986 54.8301 29.1668 52.9754 29.1668 51.0415Z" fill="#084DFF"/>
</svg>
