<svg width="55" height="74" viewBox="0 0 55 74" fill="none" xmlns="http://www.w3.org/2000/svg">
<path d="M33.4263 0H9.16667C6.73552 0 4.40394 0.963162 2.68485 2.6776C0.965771 4.39204 0 6.71732 0 9.1419V63.9933C0 66.4179 0.965771 68.7432 2.68485 70.4576C4.40394 72.1721 6.73552 73.1352 9.16667 73.1352H45.8333C48.2645 73.1352 50.5961 72.1721 52.3151 70.4576C54.0342 68.7432 55 66.4179 55 63.9933V21.5155C54.9997 20.3033 54.5167 19.1408 53.6571 18.2838L36.6667 1.33929C35.8073 0.48201 34.6417 0.000258887 33.4263 0V0ZM34.375 15.9983V6.85643L48.125 20.5693H38.9583C37.7428 20.5693 36.577 20.0877 35.7174 19.2305C34.8579 18.3733 34.375 17.2106 34.375 15.9983ZM11.4583 41.1386C10.8505 41.1386 10.2677 40.8978 9.83788 40.4692C9.40811 40.0406 9.16667 39.4592 9.16667 38.8531C9.16667 38.2469 9.40811 37.6656 9.83788 37.237C10.2677 36.8084 10.8505 36.5676 11.4583 36.5676H43.5417C44.1495 36.5676 44.7324 36.8084 45.1621 37.237C45.5919 37.6656 45.8333 38.2469 45.8333 38.8531C45.8333 39.4592 45.5919 40.0406 45.1621 40.4692C44.7324 40.8978 44.1495 41.1386 43.5417 41.1386H11.4583ZM9.16667 47.995C9.16667 47.3888 9.40811 46.8075 9.83788 46.3789C10.2677 45.9503 10.8505 45.7095 11.4583 45.7095H43.5417C44.1495 45.7095 44.7324 45.9503 45.1621 46.3789C45.5919 46.8075 45.8333 47.3888 45.8333 47.995C45.8333 48.6011 45.5919 49.1825 45.1621 49.6111C44.7324 50.0397 44.1495 50.2805 43.5417 50.2805H11.4583C10.8505 50.2805 10.2677 50.0397 9.83788 49.6111C9.40811 49.1825 9.16667 48.6011 9.16667 47.995ZM11.4583 59.4224C10.8505 59.4224 10.2677 59.1816 9.83788 58.753C9.40811 58.3244 9.16667 57.743 9.16667 57.1369C9.16667 56.5307 9.40811 55.9494 9.83788 55.5208C10.2677 55.0922 10.8505 54.8514 11.4583 54.8514H29.7917C30.3995 54.8514 30.9824 55.0922 31.4121 55.5208C31.8419 55.9494 32.0833 56.5307 32.0833 57.1369C32.0833 57.743 31.8419 58.3244 31.4121 58.753C30.9824 59.1816 30.3995 59.4224 29.7917 59.4224H11.4583Z" fill="#084DFF"/>
</svg>
