<svg width="66" height="66" viewBox="0 0 66 66" fill="none" xmlns="http://www.w3.org/2000/svg">
<path d="M55 49.5C58.025 49.5 60.4725 47.025 60.4725 44L60.5 16.5C60.5 13.475 58.025 11 55 11H11C7.975 11 5.5 13.475 5.5 16.5V44C5.5 47.025 7.975 49.5 11 49.5H2.75C1.2375 49.5 0 50.7375 0 52.25C0 53.7625 1.2375 55 2.75 55H63.25C64.7625 55 66 53.7625 66 52.25C66 50.7375 64.7625 49.5 63.25 49.5H55ZM13.75 16.5H52.25C53.7625 16.5 55 17.7375 55 19.25V41.25C55 42.7625 53.7625 44 52.25 44H13.75C12.2375 44 11 42.7625 11 41.25V19.25C11 17.7375 12.2375 16.5 13.75 16.5Z" fill="#084DFF"/>
</svg>
