<svg width="70" height="70" viewBox="0 0 70 70" fill="none" xmlns="http://www.w3.org/2000/svg">
<path d="M26.2499 8.75C22.3822 8.75 18.6728 10.2865 15.9379 13.0214C13.203 15.7563 11.6666 19.4656 11.6666 23.3333C11.6666 27.2011 13.203 30.9104 15.9379 33.6453C18.6728 36.3802 22.3822 37.9167 26.2499 37.9167C30.1177 37.9167 33.827 36.3802 36.5619 33.6453C39.2968 30.9104 40.8333 27.2011 40.8333 23.3333C40.8333 19.4656 39.2968 15.7563 36.5619 13.0214C33.827 10.2865 30.1177 8.75 26.2499 8.75V8.75ZM17.4999 23.3333C17.4999 21.0127 18.4218 18.7871 20.0627 17.1461C21.7037 15.5052 23.9293 14.5833 26.2499 14.5833C28.5706 14.5833 30.7962 15.5052 32.4371 17.1461C34.078 18.7871 34.9999 21.0127 34.9999 23.3333C34.9999 25.654 34.078 27.8796 32.4371 29.5205C30.7962 31.1615 28.5706 32.0833 26.2499 32.0833C23.9293 32.0833 21.7037 31.1615 20.0627 29.5205C18.4218 27.8796 17.4999 25.654 17.4999 23.3333ZM49.3149 23.9692C48.4947 23.5512 47.5872 23.3333 46.6666 23.3333V17.5C48.5085 17.5001 50.3243 17.9364 51.9652 18.773C53.6062 19.6097 55.0257 20.823 56.1076 22.3137C57.1896 23.8044 57.9032 25.5301 58.1901 27.3496C58.477 29.169 58.329 31.0305 57.7582 32.7818C57.1875 34.5331 56.2101 36.1244 54.9063 37.4254C53.6024 38.7264 52.009 39.7002 50.2564 40.267C48.5039 40.8339 46.642 40.9778 44.8232 40.6869C43.0044 40.396 41.2803 39.6786 39.792 38.5933L43.2278 33.88C43.8783 34.3534 44.6197 34.6872 45.4054 34.8603C46.1911 35.0334 47.004 35.0421 47.7932 34.8858C48.5825 34.7296 49.3308 34.4118 49.9913 33.9524C50.6518 33.493 51.2101 32.902 51.6311 32.2165C52.0522 31.5309 52.3269 30.7657 52.4379 29.9689C52.549 29.172 52.494 28.3609 52.2765 27.5863C52.059 26.8118 51.6836 26.0906 51.1739 25.4681C50.6642 24.8456 50.0313 24.3353 49.3149 23.9692ZM58.3274 61.25C58.3266 58.1576 57.0978 55.1921 54.9112 53.0054C52.7245 50.8187 49.759 49.5899 46.6666 49.5892V43.75C51.3076 43.7508 55.7584 45.5948 59.0401 48.8765C62.3218 52.1582 64.1658 56.6089 64.1666 61.25H58.3274ZM46.6666 61.25H40.8333C40.8333 57.3823 39.2968 53.6729 36.5619 50.938C33.827 48.2031 30.1177 46.6667 26.2499 46.6667C22.3822 46.6667 18.6728 48.2031 15.9379 50.938C13.203 53.6729 11.6666 57.3823 11.6666 61.25H5.83325C5.83325 55.8352 7.98429 50.6421 11.8132 46.8132C15.642 42.9844 20.8351 40.8333 26.2499 40.8333C31.6648 40.8333 36.8578 42.9844 40.6867 46.8132C44.5155 50.6421 46.6666 55.8352 46.6666 61.25V61.25Z" fill="#084DFF"/>
</svg>
