<svg width="70" height="70" viewBox="0 0 70 70" fill="none" xmlns="http://www.w3.org/2000/svg">
<path d="M56.1127 42.3089L45.1507 37.0799L40.5153 34.8686C42.5397 33.5932 44.184 31.6248 45.2599 29.2539C46.1573 27.2773 46.6216 25.1316 46.6214 22.9609C46.6214 21.682 46.4184 20.4675 46.1356 19.2957C44.7566 13.6173 40.3221 9.43408 34.9986 9.43408C29.7759 9.43408 25.4086 13.4682 23.9442 18.9849C23.6061 20.2505 23.3737 21.5665 23.3737 22.9609C23.3737 25.3822 23.9393 27.6397 24.9004 29.6032C26.0113 31.881 27.6584 33.7591 29.6632 34.9666L25.2238 37.0337L13.9062 42.3047C12.9234 42.7653 12.2773 43.8741 12.2773 45.1124V57.5479C12.2773 59.2146 13.4386 60.5656 14.8722 60.5656H31.6813V51.0442C31.6837 50.946 31.7124 50.8502 31.7646 50.767L31.7576 50.7628L34.5107 45.9944L34.5177 45.9986C34.6157 45.8306 34.79 45.7116 34.9986 45.7116C35.2072 45.7116 35.3815 45.8299 35.4795 45.9986L35.4823 45.9965L35.5075 46.0406C35.511 46.0476 35.5159 46.0532 35.5187 46.0602L38.2354 50.7649L38.2319 50.767C38.2842 50.8505 38.3129 50.9464 38.3152 51.0449V60.5663H55.1243C56.5579 60.5663 57.7199 59.2153 57.7199 57.5486V45.1124C57.722 43.8783 57.0864 42.78 56.1127 42.3089ZM38.234 39.1204L38.241 39.1246L35.4872 43.893L35.4802 43.8888C35.4325 43.9747 35.3628 44.0464 35.2783 44.0967C35.1939 44.147 35.0976 44.174 34.9993 44.1751C34.9011 44.174 34.8048 44.147 34.7203 44.0967C34.6359 44.0464 34.5662 43.9747 34.5184 43.8888L34.5149 43.8909L34.4869 43.8426C34.4848 43.8377 34.4806 43.8335 34.4785 43.8286L31.7618 39.1225L31.7646 39.1204C31.7124 39.0369 31.6836 38.9409 31.6813 38.8425C31.6813 38.531 31.934 38.2783 32.2455 38.2783H37.7517C38.0632 38.2783 38.3159 38.531 38.3159 38.8425C38.3148 38.9409 38.2865 39.0371 38.234 39.1204Z" fill="white"/>
</svg>
