<svg width="70" height="70" viewBox="0 0 70 70" fill="none" xmlns="http://www.w3.org/2000/svg">
<path d="M21.6198 35C17.6823 35.1302 14.4618 36.7969 11.9583 40H7.07292C5.07986 40 3.40278 39.4727 2.04167 38.418C0.680556 37.3633 0 35.8203 0 33.7891C0 24.5964 1.50694 20 4.52083 20C4.66667 20 5.19531 20.2734 6.10677 20.8203C7.01823 21.3672 8.20312 21.9206 9.66146 22.4805C11.1198 23.0404 12.566 23.3203 14 23.3203C15.6285 23.3203 17.2448 23.0208 18.849 22.4219C18.7274 23.3854 18.6667 24.2448 18.6667 25C18.6667 28.6198 19.651 31.9531 21.6198 35ZM60.6667 59.8828C60.6667 63.0078 59.7795 65.4753 58.0052 67.2852C56.2309 69.0951 53.8733 70 50.9323 70H19.0677C16.1267 70 13.7691 69.0951 11.9948 67.2852C10.2205 65.4753 9.33333 63.0078 9.33333 59.8828C9.33333 58.5026 9.37587 57.1549 9.46094 55.8398C9.54601 54.5247 9.71615 53.1055 9.97135 51.582C10.2266 50.0586 10.5486 48.6458 10.9375 47.3438C11.3264 46.0417 11.849 44.7721 12.5052 43.5352C13.1615 42.2982 13.9149 41.2435 14.7656 40.3711C15.6163 39.4987 16.6554 38.8021 17.8828 38.2812C19.1102 37.7604 20.4653 37.5 21.9479 37.5C22.191 37.5 22.7135 37.7799 23.5156 38.3398C24.3177 38.8997 25.2049 39.5247 26.1771 40.2148C27.1493 40.9049 28.4497 41.5299 30.0781 42.0898C31.7066 42.6497 33.3472 42.9297 35 42.9297C36.6528 42.9297 38.2934 42.6497 39.9219 42.0898C41.5503 41.5299 42.8507 40.9049 43.8229 40.2148C44.7951 39.5247 45.6823 38.8997 46.4844 38.3398C47.2865 37.7799 47.809 37.5 48.0521 37.5C49.5347 37.5 50.8898 37.7604 52.1172 38.2812C53.3446 38.8021 54.3837 39.4987 55.2344 40.3711C56.0851 41.2435 56.8385 42.2982 57.4948 43.5352C58.151 44.7721 58.6736 46.0417 59.0625 47.3438C59.4514 48.6458 59.7734 50.0586 60.0286 51.582C60.2839 53.1055 60.454 54.5247 60.5391 55.8398C60.6241 57.1549 60.6667 58.5026 60.6667 59.8828ZM23.3333 10C23.3333 12.7604 22.4219 15.1172 20.599 17.0703C18.776 19.0234 16.5764 20 14 20C11.4236 20 9.22396 19.0234 7.40104 17.0703C5.57812 15.1172 4.66667 12.7604 4.66667 10C4.66667 7.23958 5.57812 4.88281 7.40104 2.92969C9.22396 0.976562 11.4236 0 14 0C16.5764 0 18.776 0.976562 20.599 2.92969C22.4219 4.88281 23.3333 7.23958 23.3333 10ZM49 25C49 29.1406 47.6328 32.6758 44.8984 35.6055C42.1641 38.5352 38.8646 40 35 40C31.1354 40 27.8359 38.5352 25.1016 35.6055C22.3672 32.6758 21 29.1406 21 25C21 20.8594 22.3672 17.3242 25.1016 14.3945C27.8359 11.4648 31.1354 10 35 10C38.8646 10 42.1641 11.4648 44.8984 14.3945C47.6328 17.3242 49 20.8594 49 25ZM70 33.7891C70 35.8203 69.3194 37.3633 67.9583 38.418C66.5972 39.4727 64.9201 40 62.9271 40H58.0417C55.5382 36.7969 52.3177 35.1302 48.3802 35C50.349 31.9531 51.3333 28.6198 51.3333 25C51.3333 24.2448 51.2726 23.3854 51.151 22.4219C52.7552 23.0208 54.3715 23.3203 56 23.3203C57.434 23.3203 58.8802 23.0404 60.3385 22.4805C61.7969 21.9206 62.9818 21.3672 63.8932 20.8203C64.8047 20.2734 65.3333 20 65.4792 20C68.493 20 70 24.5964 70 33.7891ZM65.3333 10C65.3333 12.7604 64.4219 15.1172 62.599 17.0703C60.776 19.0234 58.5764 20 56 20C53.4236 20 51.224 19.0234 49.401 17.0703C47.5781 15.1172 46.6667 12.7604 46.6667 10C46.6667 7.23958 47.5781 4.88281 49.401 2.92969C51.224 0.976562 53.4236 0 56 0C58.5764 0 60.776 0.976562 62.599 2.92969C64.4219 4.88281 65.3333 7.23958 65.3333 10Z" fill="#084DFF"/>
</svg>
