<svg width="65" height="65" viewBox="0 0 65 65" fill="none" xmlns="http://www.w3.org/2000/svg">
<path d="M41.5349 64.9472L61.0857 60.7161C61.0857 60.7161 54.0292 13.0142 53.9763 12.6953C53.9235 12.3764 53.6595 12.1773 53.4056 12.1773C53.1415 12.1773 48.1792 11.8077 48.1792 11.8077C48.1792 11.8077 44.7199 8.35859 44.2751 7.98891C44.183 7.89761 44.0711 7.8288 43.9481 7.78781L41.472 64.9492L41.5349 64.9472ZM31.7179 30.617C31.7179 30.617 29.5181 29.4734 26.914 29.4734C22.9896 29.4734 22.8413 31.917 22.8413 32.563C22.8413 35.8963 31.6123 37.2064 31.6123 45.0998C31.6123 51.3094 27.7082 55.2764 22.3863 55.2764C16.0062 55.2764 12.8009 51.3094 12.8009 51.3094L14.5457 45.6605C14.5457 45.6605 17.9196 48.5489 20.7248 48.5489C22.5549 48.5489 23.3695 47.0783 23.3695 46.02C23.3695 41.6406 16.1748 41.4395 16.1748 34.2245C16.0793 28.1633 20.4282 22.2584 29.252 22.2584C32.6584 22.2584 34.3301 23.2314 34.3301 23.2314L31.7707 30.5947L31.7179 30.617ZM30.2574 2.2425C30.617 2.2425 30.9867 2.34812 31.3462 2.61219C28.6792 3.87156 25.7603 7.05656 24.5537 13.4245C22.8593 13.9759 21.1555 14.498 19.4431 14.9906C20.8406 10.1562 24.2348 2.275 30.2554 2.275L30.2574 2.2425ZM33.6009 10.2294V10.5991C31.5595 11.2227 29.3048 11.9113 27.1151 12.5877C28.3745 7.77359 30.7226 5.42547 32.764 4.54797C33.282 5.90281 33.5988 7.73297 33.5988 10.2294H33.6009ZM35.0593 4.19047C36.9321 4.38141 38.1488 6.52844 38.9207 8.94156C37.9782 9.24828 36.9321 9.56516 35.7885 9.92469V9.24828C35.7885 7.20687 35.5245 5.53516 35.0593 4.18031V4.19047ZM43.164 7.68016C43.101 7.68016 42.9954 7.73297 42.9528 7.73297C42.8999 7.73297 42.1707 7.93406 41.017 8.30375C39.8734 4.96031 37.832 1.88297 34.2245 1.88297H33.9076C32.8717 0.570781 31.6021 0 30.5113 0C22.0999 0 18.0801 10.5056 16.8207 15.8377C13.5829 16.8208 11.2348 17.552 10.9707 17.6577C9.14057 18.2386 9.08775 18.2934 8.8765 20.0159C8.67541 21.2652 3.92432 58.1019 3.92432 58.1019L40.6453 65L43.164 7.68016Z" fill="#084DFF"/>
</svg>
