<svg width="113" height="113" viewBox="0 0 113 113" fill="none" xmlns="http://www.w3.org/2000/svg">
<path d="M97.1094 42.3749C97.1125 35.5671 95.4041 28.8677 92.1412 22.8928C88.8783 16.9178 84.1657 11.859 78.4366 8.18154C72.7075 4.50405 66.1458 2.32588 59.3548 1.8473C52.5638 1.36872 45.7615 2.60509 39.5732 5.44272C33.385 8.28036 28.0094 12.6282 23.9408 18.0865C19.8722 23.5448 17.2411 29.9383 16.2894 36.6793C15.3377 43.4203 16.096 50.2923 18.4945 56.6637C20.893 63.035 24.8548 68.701 30.0156 73.1409V105.937C30.0166 106.84 30.2483 107.728 30.6886 108.515C31.129 109.303 31.7634 109.966 32.5316 110.44C33.3004 110.919 34.1799 111.191 35.0848 111.229C35.9898 111.268 36.8893 111.072 37.6961 110.66L56.5 101.258L75.3039 110.66C76.0403 111.042 76.8582 111.239 77.6875 111.234C78.6709 111.237 79.635 110.962 80.4684 110.44C81.2366 109.966 81.871 109.303 82.3114 108.515C82.7517 107.728 82.9834 106.84 82.9844 105.937V73.1409C87.4156 69.3326 90.9718 64.6119 93.4097 59.3018C95.8476 53.9918 97.1096 48.2178 97.1094 42.3749ZM26.4844 42.3749C26.4844 36.4384 28.2448 30.6352 31.5429 25.6991C34.8411 20.7631 39.5289 16.9159 45.0135 14.6441C50.4982 12.3723 56.5333 11.7779 62.3558 12.936C68.1782 14.0942 73.5265 16.9529 77.7243 21.1507C81.922 25.3484 84.7807 30.6967 85.9389 36.5192C87.0971 42.3416 86.5026 48.3768 84.2308 53.8614C81.959 59.346 78.1118 64.0338 73.1758 67.332C68.2397 70.6301 62.4365 72.3905 56.5 72.3905C48.543 72.3789 40.9151 69.2128 35.2886 63.5863C29.6622 57.9598 26.4961 50.332 26.4844 42.3749ZM72.3906 97.3741L58.8836 90.6206C58.1433 90.2514 57.3273 90.0592 56.5 90.0592C55.6727 90.0592 54.8567 90.2514 54.1164 90.6206L40.6094 97.3741V79.762C45.6372 81.889 51.0408 82.9849 56.5 82.9849C61.9592 82.9849 67.3628 81.889 72.3906 79.762V97.3741ZM56.5 65.328C61.0397 65.328 65.4775 63.9819 69.2521 61.4597C73.0267 58.9376 75.9687 55.3528 77.7059 51.1587C79.4432 46.9646 79.8978 42.3495 79.0121 37.897C78.1264 33.4445 75.9404 29.3547 72.7303 26.1446C69.5203 22.9346 65.4304 20.7485 60.9779 19.8628C56.5255 18.9772 51.9104 19.4317 47.7162 21.169C43.5221 22.9063 39.9373 25.8482 37.4152 29.6228C34.8931 33.3975 33.5469 37.8352 33.5469 42.3749C33.5469 48.4625 35.9651 54.3007 40.2697 58.6052C44.5742 62.9098 50.4125 65.328 56.5 65.328ZM56.5 30.0155C58.9445 30.0155 61.334 30.7404 63.3665 32.0985C65.399 33.4565 66.9831 35.3868 67.9186 37.6452C68.854 39.9036 69.0988 42.3886 68.6219 44.7861C68.145 47.1836 66.9679 49.3858 65.2394 51.1143C63.5109 52.8428 61.3087 54.0199 58.9112 54.4968C56.5137 54.9737 54.0287 54.7289 51.7703 53.7935C49.5119 52.858 47.5816 51.2739 46.2236 49.2414C44.8655 47.2089 44.1406 44.8194 44.1406 42.3749C44.1523 39.1006 45.4581 35.9637 47.7735 33.6484C50.0888 31.3331 53.2257 30.0272 56.5 30.0155Z" fill="#084DFF"/>
</svg>
