<svg width="119" height="119" viewBox="0 0 119 119" fill="none" xmlns="http://www.w3.org/2000/svg">
<path d="M59.5 119C84.1479 119 104.125 104.125 104.125 78.0938C104.125 66.9375 100.406 48.3438 85.5312 33.4688C87.3906 44.625 76.2344 48.3438 76.2344 48.3438C81.8125 29.75 66.9375 3.71875 44.625 0C47.2802 14.875 48.3438 29.75 29.75 44.625C20.4531 52.0625 14.875 64.9219 14.875 78.0938C14.875 104.125 34.8521 119 59.5 119ZM59.5 111.562C47.1761 111.562 37.1875 104.125 37.1875 91.1094C37.1875 85.5312 39.0469 76.2344 46.4844 68.7969C45.5547 74.375 52.0625 78.0938 52.0625 78.0938C49.2734 68.7969 55.7812 53.9219 66.9375 52.0625C65.6062 59.5 65.0781 66.9375 74.375 74.375C79.0234 78.0938 81.8125 84.5198 81.8125 91.1094C81.8125 104.125 71.8239 111.562 59.5 111.562Z" fill="#084DFF"/>
</svg>
