<svg width="62" height="57" viewBox="0 0 62 57" fill="none" xmlns="http://www.w3.org/2000/svg">
<path d="M51.6667 19L36.1667 4.75H15.5C14.1297 4.75 12.8156 5.25044 11.8466 6.14124C10.8777 7.03204 10.3333 8.24022 10.3333 9.5V47.5C10.3333 48.7598 10.8777 49.968 11.8466 50.8588C12.8156 51.7496 14.1297 52.25 15.5 52.25H46.5C47.8703 52.25 49.1845 51.7496 50.1534 50.8588C51.1223 49.968 51.6667 48.7598 51.6667 47.5V19ZM23.25 45.125H18.0833V23.75H23.25V45.125ZM33.5833 45.125H28.4167V30.875H33.5833V45.125ZM43.9167 45.125H38.75V38H43.9167V45.125ZM36.1667 21.375H33.5833V9.5L46.5 21.375H36.1667Z" fill="#084DFF"/>
</svg>
