<svg width="24" height="24" viewBox="0 0 24 24" fill="none" xmlns="http://www.w3.org/2000/svg">
<path d="M10.1339 10.5361L11.7449 9.06012C12.1854 8.65575 12.495 8.12897 12.634 7.54739C12.773 6.96581 12.735 6.35596 12.5249 5.79612L11.8379 3.96162C11.5813 3.27675 11.0731 2.7155 10.4171 2.39221C9.76103 2.06892 9.0064 2.00791 8.30693 2.22162C5.73293 3.00912 3.75443 5.40162 4.36343 8.24262C4.76393 10.1116 5.53043 12.4576 6.98243 14.9536C8.43743 17.4556 10.0994 19.3036 11.5244 20.6026C13.6754 22.5601 16.7504 22.0711 18.7289 20.2261C19.2593 19.7316 19.5811 19.0535 19.6288 18.3299C19.6764 17.6064 19.4463 16.8919 18.9854 16.3321L17.7254 14.8021C17.3454 14.3394 16.8356 14.0011 16.2617 13.8305C15.6878 13.66 15.0759 13.6651 14.5049 13.8451L12.4229 14.5006C11.8853 13.9457 11.4141 13.3301 11.0189 12.6661C10.6375 11.9947 10.3403 11.2788 10.1339 10.5346V10.5361Z" fill="#084DFF"/>
</svg>
