<svg width="65" height="65" viewBox="0 0 65 65" fill="none" xmlns="http://www.w3.org/2000/svg">
<path d="M27.0833 48.7501C31.8906 48.7491 36.5593 47.1398 40.346 44.1784L52.2519 56.0842L56.0815 52.2547L44.1756 40.3488C47.1385 36.5617 48.7488 31.8919 48.75 27.0834C48.75 15.137 39.0298 5.41675 27.0833 5.41675C15.1369 5.41675 5.41667 15.137 5.41667 27.0834C5.41667 39.0299 15.1369 48.7501 27.0833 48.7501ZM27.0833 10.8334C36.0452 10.8334 43.3333 18.1215 43.3333 27.0834C43.3333 36.0453 36.0452 43.3334 27.0833 43.3334C18.1215 43.3334 10.8333 36.0453 10.8333 27.0834C10.8333 18.1215 18.1215 10.8334 27.0833 10.8334Z" fill="#084DFF"/>
<path d="M30.9075 23.2539C31.934 24.283 32.5 25.6426 32.5 27.0834H37.9167C37.9191 25.66 37.6393 24.2502 37.0935 22.9356C36.5478 21.6209 35.7469 20.4275 34.7371 19.4243C30.6367 15.3293 23.5273 15.3293 19.4296 19.4243L23.2537 23.2593C25.3121 21.2064 28.86 21.2118 30.9075 23.2539Z" fill="#084DFF"/>
</svg>
