<svg width="65" height="65" viewBox="0 0 65 65" fill="none" xmlns="http://www.w3.org/2000/svg">
<path d="M51.4583 8.125H13.5417C10.5625 8.125 8.125 10.5625 8.125 13.5417V51.4583C8.125 54.4375 10.5625 56.875 13.5417 56.875H51.4583C54.4375 56.875 56.875 54.4375 56.875 51.4583V13.5417C56.875 10.5625 54.4375 8.125 51.4583 8.125ZM35.2896 19.1208L38.1604 16.25L41.9792 20.0687L45.7979 16.25L48.6687 19.1208L44.85 22.9396L48.6687 26.7583L45.7979 29.6292L41.9792 25.8375L38.1604 29.6562L35.2896 26.7854L39.1083 22.9667L35.2896 19.1208ZM16.9271 20.9083H30.4688V24.9708H16.9271V20.9083ZM31.1458 43.3333H25.7292V48.75H21.6667V43.3333H16.25V39.2708H21.6667V33.8542H25.7292V39.2708H31.1458V43.3333ZM48.75 46.7188H35.2083V42.6562H48.75V46.7188ZM48.75 39.9479H35.2083V35.8854H48.75V39.9479Z" fill="#084DFF"/>
</svg>
