<svg width="72" height="72" viewBox="0 0 72 72" fill="none" xmlns="http://www.w3.org/2000/svg">
<path d="M40.2987 34.1407C38.7592 33.7559 37.2197 32.9861 36.0651 31.8315C34.9105 31.4467 34.5257 30.2921 34.5257 29.5223C34.5257 28.7526 34.9105 27.598 35.6803 27.2131C36.8349 26.4434 37.9895 25.6736 39.1441 26.0585C41.4533 26.0585 43.3776 27.2131 44.5322 28.7526L47.9961 24.1342C46.8415 22.9796 45.6869 22.2098 44.5322 21.4401C43.3776 20.6703 41.8382 20.2855 40.2987 20.2855V14.8973H35.6803V20.2855C33.7559 20.6703 31.8316 21.825 30.2921 23.3644C28.7526 25.2888 27.598 27.598 27.9829 29.9072C27.9829 32.2164 28.7526 34.5256 30.2921 36.0651C32.2165 37.9894 34.9105 39.144 37.2198 40.2986C38.3744 40.6835 39.9138 41.4532 41.0684 42.223C41.8382 42.9927 42.223 44.1473 42.223 45.3019C42.223 46.4565 41.8382 47.6111 41.0684 48.7657C39.9138 49.9203 38.3744 50.3052 37.2198 50.3052C35.6803 50.3052 33.7559 49.9203 32.6013 48.7657C31.4467 47.996 30.2921 46.8414 29.5224 45.6868L25.6737 49.9203C26.8283 51.4598 27.9829 52.6144 29.5224 53.769C31.4467 54.9236 33.7559 56.0782 36.0651 56.0782V61.0815H40.2987V55.3085C42.6079 54.9236 44.5323 53.769 46.0717 52.2296C47.9961 50.3052 49.1507 47.2263 49.1507 44.5322C49.1507 42.223 48.3809 39.5289 46.4566 37.9894C44.5322 36.0651 42.6079 34.9105 40.2987 34.1407ZM37.9895 7.19995C21.0553 7.19995 7.20001 21.0552 7.20001 37.9894C7.20001 54.9236 21.0553 68.7789 37.9895 68.7789C54.9237 68.7789 68.779 54.9236 68.779 37.9894C68.779 21.0552 54.9237 7.19995 37.9895 7.19995ZM37.9895 64.5453C23.3645 64.5453 11.4336 52.6144 11.4336 37.9894C11.4336 23.3644 23.3645 11.4335 37.9895 11.4335C52.6145 11.4335 64.5454 23.3644 64.5454 37.9894C64.5454 52.6144 52.6145 64.5453 37.9895 64.5453Z" fill="#084DFF"/>
</svg>
