<svg width="72" height="72" viewBox="0 0 72 72" fill="none" xmlns="http://www.w3.org/2000/svg">
<path d="M37.9675 6.75018C20.6521 6.51632 6.51627 20.6515 6.75014 37.966C6.98105 54.5715 20.5026 68.0924 37.1089 68.3233C54.4272 68.5601 68.5601 54.425 68.3233 37.1105C68.0953 20.502 54.5738 6.98107 37.9675 6.75018ZM51.6001 25.5833L39.4269 53.1905C38.7179 54.7402 36.3511 54.2266 36.3511 52.5156V39.3129C36.3511 39.1559 36.2887 39.0053 36.1777 38.8943C36.0666 38.7832 35.916 38.7209 35.759 38.7209H22.5586C20.8534 38.7209 20.3383 36.3719 21.8822 35.6614L49.4923 23.4756C49.7873 23.3394 50.1169 23.2969 50.4368 23.3539C50.7567 23.4109 51.0514 23.5647 51.2812 23.7944C51.511 24.0242 51.6647 24.3189 51.7217 24.6387C51.7787 24.9586 51.7363 25.2883 51.6001 25.5833Z" fill="#084DFF"/>
</svg>
