<svg width="74" height="74" viewBox="0 0 74 74" fill="none" xmlns="http://www.w3.org/2000/svg">
<path d="M64.75 61.6666H61.6667V15.4166C61.6667 14.5989 61.3418 13.8146 60.7636 13.2364C60.1853 12.6581 59.4011 12.3333 58.5833 12.3333C57.7656 12.3333 56.9813 12.6581 56.4031 13.2364C55.8248 13.8146 55.5 14.5989 55.5 15.4166V61.6666H49.3333V27.75C49.3333 26.9322 49.0085 26.148 48.4302 25.5697C47.852 24.9915 47.0677 24.6666 46.25 24.6666C45.4322 24.6666 44.648 24.9915 44.0697 25.5697C43.4915 26.148 43.1667 26.9322 43.1667 27.75V61.6666H37V40.0833C37 39.2655 36.6751 38.4813 36.0969 37.903C35.5187 37.3248 34.7344 37 33.9167 37C33.0989 37 32.3146 37.3248 31.7364 37.903C31.1582 38.4813 30.8333 39.2655 30.8333 40.0833V61.6666H24.6667V52.4166C24.6667 51.5989 24.3418 50.8146 23.7636 50.2364C23.1853 49.6581 22.4011 49.3333 21.5833 49.3333C20.7656 49.3333 19.9813 49.6581 19.4031 50.2364C18.8248 50.8146 18.5 51.5989 18.5 52.4166V61.6666H12.3333V9.24996C12.3333 8.43221 12.0085 7.64795 11.4302 7.06971C10.852 6.49148 10.0677 6.16663 9.24999 6.16663C8.43224 6.16663 7.64798 6.49148 7.06974 7.06971C6.49151 7.64795 6.16666 8.43221 6.16666 9.24996V64.75C6.16666 65.5677 6.49151 66.352 7.06974 66.9302C7.64798 67.5084 8.43224 67.8333 9.24999 67.8333H64.75C65.5677 67.8333 66.352 67.5084 66.9302 66.9302C67.5085 66.352 67.8333 65.5677 67.8333 64.75C67.8333 63.9322 67.5085 63.148 66.9302 62.5697C66.352 61.9915 65.5677 61.6666 64.75 61.6666Z" fill="#084DFF"/>
</svg>
