<svg width="108" height="39" viewBox="0 0 108 39" fill="none" xmlns="http://www.w3.org/2000/svg">
<path d="M6.03409 31H0.761364L8.79545 7.72727H15.1364L23.1591 31H17.8864L12.0568 13.0455H11.875L6.03409 31ZM5.70455 21.8523H18.1591V25.6932H5.70455V21.8523ZM31.9686 31.2841C30.6429 31.2841 29.4421 30.9432 28.3664 30.2614C27.2982 29.572 26.4497 28.5606 25.8209 27.2273C25.1997 25.8864 24.8891 24.2424 24.8891 22.2955C24.8891 20.2955 25.2111 18.6326 25.855 17.3068C26.4989 15.9735 27.355 14.9773 28.4232 14.3182C29.4989 13.6515 30.677 13.3182 31.9573 13.3182C32.9345 13.3182 33.7489 13.4848 34.4005 13.8182C35.0595 14.1439 35.5898 14.553 35.9914 15.0455C36.4005 15.5303 36.7111 16.0076 36.9232 16.4773H37.0709V7.72727H41.9005V31H37.1277V28.2045H36.9232C36.6959 28.6894 36.3739 29.1705 35.9573 29.6477C35.5482 30.1174 35.0141 30.5076 34.355 30.8182C33.7035 31.1288 32.908 31.2841 31.9686 31.2841ZM33.5027 27.4318C34.283 27.4318 34.9421 27.2197 35.48 26.7955C36.0255 26.3636 36.4421 25.7614 36.73 24.9886C37.0255 24.2159 37.1732 23.3106 37.1732 22.2727C37.1732 21.2348 37.0292 20.3333 36.7414 19.5682C36.4535 18.803 36.0368 18.2121 35.4914 17.7955C34.9459 17.3788 34.283 17.1705 33.5027 17.1705C32.7073 17.1705 32.0368 17.3864 31.4914 17.8182C30.9459 18.25 30.533 18.8485 30.2527 19.6136C29.9724 20.3788 29.8323 21.2652 29.8323 22.2727C29.8323 23.2879 29.9724 24.1856 30.2527 24.9659C30.5406 25.7386 30.9535 26.3447 31.4914 26.7841C32.0368 27.2159 32.7073 27.4318 33.5027 27.4318ZM62.6333 13.5455L56.531 31H51.0765L44.9742 13.5455H50.0878L53.7128 26.0341H53.8947L57.5083 13.5455H62.6333ZM80.0565 7.72727H84.9769V22.8409C84.9769 24.5379 84.5716 26.0227 83.761 27.2955C82.958 28.5682 81.833 29.5606 80.386 30.2727C78.9391 30.9773 77.2534 31.3295 75.3292 31.3295C73.3974 31.3295 71.708 30.9773 70.261 30.2727C68.8141 29.5606 67.6891 28.5682 66.886 27.2955C66.083 26.0227 65.6815 24.5379 65.6815 22.8409V7.72727H70.6019V22.4205C70.6019 23.3068 70.7951 24.0947 71.1815 24.7841C71.5754 25.4735 72.1284 26.0152 72.8406 26.4091C73.5527 26.803 74.3822 27 75.3292 27C76.2837 27 77.1133 26.803 77.8178 26.4091C78.53 26.0152 79.0792 25.4735 79.4656 24.7841C79.8595 24.0947 80.0565 23.3068 80.0565 22.4205V7.72727ZM89.4143 37.5455V13.5455H94.187V16.4773H94.403C94.6151 16.0076 94.9219 15.5303 95.3234 15.0455C95.7325 14.553 96.2628 14.1439 96.9143 13.8182C97.5734 13.4848 98.3916 13.3182 99.3689 13.3182C100.642 13.3182 101.816 13.6515 102.892 14.3182C103.967 14.9773 104.827 15.9735 105.471 17.3068C106.115 18.6326 106.437 20.2955 106.437 22.2955C106.437 24.2424 106.123 25.8864 105.494 27.2273C104.873 28.5606 104.024 29.572 102.948 30.2614C101.88 30.9432 100.683 31.2841 99.3575 31.2841C98.4181 31.2841 97.6189 31.1288 96.9598 30.8182C96.3083 30.5076 95.7742 30.1174 95.3575 29.6477C94.9408 29.1705 94.6226 28.6894 94.403 28.2045H94.2552V37.5455H89.4143ZM94.153 22.2727C94.153 23.3106 94.2969 24.2159 94.5848 24.9886C94.8726 25.7614 95.2893 26.3636 95.8348 26.7955C96.3802 27.2197 97.0431 27.4318 97.8234 27.4318C98.6113 27.4318 99.278 27.2159 99.8234 26.7841C100.369 26.3447 100.782 25.7386 101.062 24.9659C101.35 24.1856 101.494 23.2879 101.494 22.2727C101.494 21.2652 101.354 20.3788 101.073 19.6136C100.793 18.8485 100.38 18.25 99.8348 17.8182C99.2893 17.3864 98.6189 17.1705 97.8234 17.1705C97.0355 17.1705 96.3689 17.3788 95.8234 17.7955C95.2855 18.2121 94.8726 18.803 94.5848 19.5682C94.2969 20.3333 94.153 21.2348 94.153 22.2727Z" fill="black"/>
</svg>
