<svg width="66" height="66" viewBox="0 0 66 66" fill="none" xmlns="http://www.w3.org/2000/svg">
<path d="M8.25 8.25C8.25 6.06196 9.11919 3.96354 10.6664 2.41637C12.2135 0.869194 14.312 0 16.5 0L49.5 0C51.688 0 53.7865 0.869194 55.3336 2.41637C56.8808 3.96354 57.75 6.06196 57.75 8.25V57.75C57.75 59.938 56.8808 62.0365 55.3336 63.5836C53.7865 65.1308 51.688 66 49.5 66H16.5C14.312 66 12.2135 65.1308 10.6664 63.5836C9.11919 62.0365 8.25 59.938 8.25 57.75V8.25ZM26.8125 8.25C26.2655 8.25 25.7409 8.4673 25.3541 8.85409C24.9673 9.24089 24.75 9.76549 24.75 10.3125C24.75 10.8595 24.9673 11.3841 25.3541 11.7709C25.7409 12.1577 26.2655 12.375 26.8125 12.375H39.1875C39.7345 12.375 40.2591 12.1577 40.6459 11.7709C41.0327 11.3841 41.25 10.8595 41.25 10.3125C41.25 9.76549 41.0327 9.24089 40.6459 8.85409C40.2591 8.4673 39.7345 8.25 39.1875 8.25H26.8125ZM33 45.375C36.2821 45.375 39.4297 44.0712 41.7504 41.7504C44.0712 39.4297 45.375 36.2821 45.375 33C45.375 29.7179 44.0712 26.5703 41.7504 24.2496C39.4297 21.9288 36.2821 20.625 33 20.625C29.7179 20.625 26.5703 21.9288 24.2496 24.2496C21.9288 26.5703 20.625 29.7179 20.625 33C20.625 36.2821 21.9288 39.4297 24.2496 41.7504C26.5703 44.0712 29.7179 45.375 33 45.375ZM53.625 56.7394C50.1022 52.9031 43.8199 49.5 33 49.5C22.1801 49.5 15.8977 52.9072 12.375 56.7394V57.75C12.375 58.844 12.8096 59.8932 13.5832 60.6668C14.3568 61.4404 15.406 61.875 16.5 61.875H49.5C50.594 61.875 51.6432 61.4404 52.4168 60.6668C53.1904 59.8932 53.625 58.844 53.625 57.75V56.7394Z" fill="#084DFF"/>
</svg>
