<svg width="65" height="66" viewBox="0 0 65 66" fill="none" xmlns="http://www.w3.org/2000/svg">
<path d="M45 28.3669C45 23.5402 43.2878 19.4115 39.8633 15.9807C36.4388 12.5499 32.3177 10.8344 27.5 10.8344C22.6823 10.8344 18.5612 12.5499 15.1367 15.9807C11.7122 19.4115 10 23.5402 10 28.3669C10 33.1935 11.7122 37.3222 15.1367 40.7531C18.5612 44.1839 22.6823 45.8993 27.5 45.8993C32.3177 45.8993 36.4388 44.1839 39.8633 40.7531C43.2878 37.3222 45 33.1935 45 28.3669ZM65 60.9271C65 62.2837 64.5052 63.4578 63.5156 64.4492C62.526 65.4406 61.3542 65.9363 60 65.9363C58.5938 65.9363 57.4219 65.4406 56.4844 64.4492L43.0859 51.0651C38.4245 54.3002 33.2292 55.9178 27.5 55.9178C23.776 55.9178 20.2148 55.1938 16.8164 53.7458C13.418 52.2978 10.4883 50.3411 8.02734 47.8756C5.56641 45.4101 3.61328 42.475 2.16797 39.0703C0.722656 35.6655 0 32.0977 0 28.3669C0 24.636 0.722656 21.0682 2.16797 17.6635C3.61328 14.2587 5.56641 11.3236 8.02734 8.85813C10.4883 6.39264 13.418 4.43589 16.8164 2.9879C20.2148 1.53991 23.776 0.815918 27.5 0.815918C31.224 0.815918 34.7852 1.53991 38.1836 2.9879C41.582 4.43589 44.5117 6.39264 46.9727 8.85813C49.4336 11.3236 51.3867 14.2587 52.832 17.6635C54.2773 21.0682 55 24.636 55 28.3669C55 34.1066 53.3854 39.3116 50.1562 43.9817L63.5547 57.4049C64.5182 58.3703 65 59.5443 65 60.9271Z" fill="#084DFF"/>
</svg>
