<svg width="66" height="66" viewBox="0 0 66 66" fill="none" xmlns="http://www.w3.org/2000/svg">
<path d="M33.0001 29.2967C37.8197 29.2967 41.7268 25.4389 41.7268 20.68C41.7268 15.9212 37.8197 12.0634 33.0001 12.0634C28.1805 12.0634 24.2734 15.9212 24.2734 20.68C24.2734 25.4389 28.1805 29.2967 33.0001 29.2967Z" fill="#084DFF"/>
<path d="M19.7635 21.5416H20.6435V20.7533C20.6488 18.4609 21.2955 16.2157 22.5105 14.2718C23.7255 12.3278 25.4602 10.7627 27.5185 9.75332C26.9091 8.35001 25.9311 7.13794 24.6882 6.24585C23.4453 5.35375 21.9841 4.81494 20.4596 4.68664C18.9351 4.55834 17.4043 4.84534 16.0298 5.51716C14.6553 6.18898 13.4885 7.22054 12.6532 8.50226C11.8179 9.78398 11.3453 11.268 11.2857 12.7967C11.2261 14.3255 11.5816 15.8418 12.3146 17.1847C13.0475 18.5276 14.1305 19.6469 15.4485 20.4237C16.7665 21.2005 18.2703 21.6058 19.8001 21.5966L19.7635 21.5416ZM45.3935 20.68V21.4683H46.2735C47.7829 21.4532 49.2604 21.0314 50.5504 20.2473C51.8404 19.4632 52.8951 18.3459 53.6036 17.013C54.3121 15.68 54.6481 14.1807 54.5764 12.6728C54.5046 11.165 54.0276 9.70435 53.1957 8.44471C52.3638 7.18507 51.2077 6.17299 49.8491 5.51501C48.4905 4.85703 46.9796 4.57748 45.4755 4.70579C43.9714 4.8341 42.5297 5.36552 41.3022 6.24411C40.0746 7.1227 39.1067 8.31597 38.5001 9.69832C40.559 10.7037 42.2956 12.2649 43.5138 14.2055C44.7319 16.1461 45.383 18.3888 45.3935 20.68ZM40.8651 30.1583C44.5103 30.8798 48.0348 32.1143 51.3335 33.825C51.7982 34.0803 52.2191 34.4083 52.5801 34.7967H62.3335V28.5267C62.3352 28.2862 62.2713 28.0498 62.1485 27.843C62.0257 27.6362 61.8488 27.4669 61.6368 27.3533C56.8851 24.8679 51.5992 23.5779 46.2368 23.595H45.0268C44.3914 26.1776 42.9301 28.4822 40.8651 30.1583V30.1583ZM11.9718 38.3533C11.9684 37.43 12.2178 36.5234 12.6928 35.7316C13.1679 34.9399 13.8505 34.2932 14.6668 33.8616C17.9655 32.151 21.49 30.9165 25.1351 30.195C23.0801 28.5331 21.6197 26.2493 20.9735 23.6866H19.7635C14.401 23.6696 9.11517 24.9596 4.36345 27.445C4.15146 27.5585 3.97452 27.7279 3.85174 27.9346C3.72896 28.1414 3.66501 28.3778 3.66678 28.6183V40.3333H11.9718V38.3533ZM39.3434 48.9317H50.2701V51.4983H39.3434V48.9317Z" fill="#084DFF"/>
<path d="M60.1516 38.9767H47.5566V37.1433C47.5566 36.6571 47.3634 36.1908 47.0196 35.847C46.6758 35.5032 46.2094 35.31 45.7232 35.31C45.237 35.31 44.7707 35.5032 44.4269 35.847C44.083 36.1908 43.8899 36.6571 43.8899 37.1433V38.9767H40.3332V33.7883C37.9212 33.2818 35.4645 33.0177 32.9999 33C27.2135 32.9759 21.5097 34.3735 16.3899 37.07C16.1618 37.1883 15.9709 37.3674 15.8383 37.5874C15.7056 37.8074 15.6364 38.0598 15.6382 38.3167V48.6017H28.6732V59.7667C28.6732 60.2529 28.8664 60.7192 29.2102 61.063C29.554 61.4068 30.0203 61.6 30.5066 61.6H60.1516C60.6378 61.6 61.1041 61.4068 61.4479 61.063C61.7917 60.7192 61.9849 60.2529 61.9849 59.7667V40.81C61.9849 40.3238 61.7917 39.8575 61.4479 39.5136C61.1041 39.1698 60.6378 38.9767 60.1516 38.9767ZM58.3182 57.97H32.3399V42.6433H43.8899V44.3117C43.8899 44.7979 44.083 45.2642 44.4269 45.608C44.7707 45.9518 45.237 46.145 45.7232 46.145C46.2094 46.145 46.6758 45.9518 47.0196 45.608C47.3634 45.2642 47.5566 44.7979 47.5566 44.3117V42.6433H58.3182V57.97Z" fill="#084DFF"/>
</svg>
