<svg width="60" height="58" viewBox="0 0 60 58" fill="none" xmlns="http://www.w3.org/2000/svg">
<path d="M50 30.2083V12.0833C50 11.4288 49.7526 10.8624 49.2578 10.3841C48.763 9.90582 48.1771 9.66667 47.5 9.66667H28.75C27.6562 9.66667 26.888 10.1576 26.4453 11.1393C26.0026 12.1714 26.1849 13.0525 26.9922 13.7826L32.6172 19.2201L11.7578 39.3841C11.263 39.8624 11.0156 40.4288 11.0156 41.0833C11.0156 41.7379 11.263 42.3043 11.7578 42.7826L15.7422 46.6341C16.237 47.1124 16.8229 47.3516 17.5 47.3516C18.1771 47.3516 18.763 47.1124 19.2578 46.6341L40.1172 26.4701L45.7422 31.9076C46.2109 32.3859 46.7969 32.625 47.5 32.625C47.8125 32.625 48.138 32.5621 48.4766 32.4362C49.4922 32.0082 50 31.2656 50 30.2083ZM60 10.875V47.125C60 50.1207 58.8997 52.6821 56.6992 54.8092C54.4987 56.9364 51.849 58 48.75 58H11.25C8.15104 58 5.5013 56.9364 3.30078 54.8092C1.10026 52.6821 0 50.1207 0 47.125V10.875C0 7.87934 1.10026 5.31793 3.30078 3.19076C5.5013 1.06359 8.15104 0 11.25 0H48.75C51.849 0 54.4987 1.06359 56.6992 3.19076C58.8997 5.31793 60 7.87934 60 10.875Z" fill="#084DFF"/>
</svg>
