<svg width="74" height="74" viewBox="0 0 74 74" fill="none" xmlns="http://www.w3.org/2000/svg">
<path d="M19.2708 9.25C16.6131 9.25 14.0643 10.3058 12.185 12.185C10.3058 14.0643 9.25 16.6131 9.25 19.2708V54.7292C9.25 57.3869 10.3058 59.9357 12.185 61.815C14.0643 63.6942 16.6131 64.75 19.2708 64.75H54.7292C57.3869 64.75 59.9357 63.6942 61.815 61.815C63.6942 59.9357 64.75 57.3869 64.75 54.7292V19.2708C64.75 16.6131 63.6942 14.0643 61.815 12.185C59.9357 10.3058 57.3869 9.25 54.7292 9.25H19.2708ZM18.5 25.4375C18.5 22.459 20.9173 20.0417 23.8958 20.0417H50.1042C53.0827 20.0417 55.5 22.459 55.5 25.4375V30.0625C55.5 31.4936 54.9315 32.866 53.9196 33.8779C52.9077 34.8898 51.5352 35.4583 50.1042 35.4583H23.8958C22.4648 35.4583 21.0923 34.8898 20.0804 33.8779C19.0685 32.866 18.5 31.4936 18.5 30.0625V25.4375ZM23.8958 24.6667C23.6914 24.6667 23.4953 24.7479 23.3508 24.8924C23.2062 25.037 23.125 25.2331 23.125 25.4375V30.0625C23.125 30.488 23.4703 30.8333 23.8958 30.8333H50.1042C50.3086 30.8333 50.5047 30.7521 50.6492 30.6076C50.7938 30.463 50.875 30.2669 50.875 30.0625V25.4375C50.875 25.2331 50.7938 25.037 50.6492 24.8924C50.5047 24.7479 50.3086 24.6667 50.1042 24.6667H23.8958ZM20.8125 40.0833H34.6875C35.3008 40.0833 35.889 40.327 36.3227 40.7606C36.7564 41.1943 37 41.7825 37 42.3958C37 43.0091 36.7564 43.5973 36.3227 44.031C35.889 44.4647 35.3008 44.7083 34.6875 44.7083H20.8125C20.1992 44.7083 19.611 44.4647 19.1773 44.031C18.7436 43.5973 18.5 43.0091 18.5 42.3958C18.5 41.7825 18.7436 41.1943 19.1773 40.7606C19.611 40.327 20.1992 40.0833 20.8125 40.0833ZM18.5 51.6458C18.5 51.0325 18.7436 50.4443 19.1773 50.0106C19.611 49.577 20.1992 49.3333 20.8125 49.3333H34.6875C35.3008 49.3333 35.889 49.577 36.3227 50.0106C36.7564 50.4443 37 51.0325 37 51.6458C37 52.2591 36.7564 52.8473 36.3227 53.281C35.889 53.7147 35.3008 53.9583 34.6875 53.9583H20.8125C20.1992 53.9583 19.611 53.7147 19.1773 53.281C18.7436 52.8473 18.5 52.2591 18.5 51.6458ZM47.0208 40.0833H50.1042C53.0827 40.0833 55.5 42.5007 55.5 45.4792V48.5625C55.5 49.9936 54.9315 51.366 53.9196 52.3779C52.9077 53.3898 51.5352 53.9583 50.1042 53.9583H47.0208C45.5898 53.9583 44.2173 53.3898 43.2054 52.3779C42.1935 51.366 41.625 49.9936 41.625 48.5625V45.4792C41.625 42.5007 44.0423 40.0833 47.0208 40.0833ZM46.25 45.4792C46.25 45.2747 46.3312 45.0787 46.4758 44.9341C46.6203 44.7895 46.8164 44.7083 47.0208 44.7083H50.1042C50.3086 44.7083 50.5047 44.7895 50.6492 44.9341C50.7938 45.0787 50.875 45.2747 50.875 45.4792V48.5625C50.875 48.7669 50.7938 48.963 50.6492 49.1076C50.5047 49.2521 50.3086 49.3333 50.1042 49.3333H47.0208C46.8164 49.3333 46.6203 49.2521 46.4758 49.1076C46.3312 48.963 46.25 48.7669 46.25 48.5625V45.4792Z" fill="#084DFF"/>
</svg>
