<svg width="70" height="70" viewBox="0 0 70 70" fill="none" xmlns="http://www.w3.org/2000/svg">
<path d="M29.1667 34.9998C35.61 34.9998 40.8333 29.7765 40.8333 23.3332C40.8333 16.8898 35.61 11.6665 29.1667 11.6665C22.7233 11.6665 17.5 16.8898 17.5 23.3332C17.5 29.7765 22.7233 34.9998 29.1667 34.9998Z" fill="white"/>
<path d="M31.1208 37.9752C30.4791 37.946 29.8374 37.9168 29.1666 37.9168C22.1083 37.9168 15.5166 39.871 9.88742 43.2252C7.32075 44.7418 5.83325 47.6002 5.83325 50.6043V58.3335H32.8416C30.7815 55.3948 29.537 51.9626 29.2347 48.3865C28.9324 44.8104 29.5832 41.218 31.1208 37.9752ZM60.5208 46.6668C60.5208 46.0252 60.4333 45.4418 60.3458 44.8293L63.6708 41.8835L60.7541 36.8377L56.5249 38.2668C55.5916 37.4793 54.5416 36.8668 53.3749 36.4293L52.4999 32.0835H46.6666L45.7916 36.4293C44.6249 36.8668 43.5749 37.4793 42.6416 38.2668L38.4124 36.8377L35.4958 41.8835L38.8208 44.8293C38.7333 45.4418 38.6458 46.0252 38.6458 46.6668C38.6458 47.3085 38.7333 47.8918 38.8208 48.5043L35.4958 51.4502L38.4124 56.496L42.6416 55.0668C43.5749 55.8543 44.6249 56.4668 45.7916 56.9043L46.6666 61.2502H52.4999L53.3749 56.9043C54.5416 56.4668 55.5916 55.8543 56.5249 55.0668L60.7541 56.496L63.6708 51.4502L60.3458 48.5043C60.4333 47.8918 60.5208 47.3085 60.5208 46.6668ZM49.5833 52.5002C46.3749 52.5002 43.7499 49.8752 43.7499 46.6668C43.7499 43.4585 46.3749 40.8335 49.5833 40.8335C52.7916 40.8335 55.4166 43.4585 55.4166 46.6668C55.4166 49.8752 52.7916 52.5002 49.5833 52.5002Z" fill="white"/>
</svg>
