<svg width="66" height="66" viewBox="0 0 66 66" fill="none" xmlns="http://www.w3.org/2000/svg">
<path d="M24.75 20.625H53.625C54.7187 20.6239 55.7673 20.189 56.5406 19.4156C57.314 18.6423 57.7489 17.5937 57.75 16.5V8.25C57.7489 7.15632 57.314 6.10774 56.5406 5.33439C55.7673 4.56104 54.7187 4.12609 53.625 4.125H24.75C23.6563 4.12609 22.6077 4.56104 21.8344 5.33439C21.061 6.10774 20.6261 7.15632 20.625 8.25V10.3125H12.375V4.125H8.25V51.5625C8.25109 52.6562 8.68604 53.7048 9.45939 54.4781C10.2327 55.2515 11.2813 55.6864 12.375 55.6875H20.625V57.75C20.6261 58.8437 21.061 59.8923 21.8344 60.6656C22.6077 61.439 23.6563 61.8739 24.75 61.875H53.625C54.7187 61.8739 55.7673 61.439 56.5406 60.6656C57.314 59.8923 57.7489 58.8437 57.75 57.75V49.5C57.7489 48.4063 57.314 47.3577 56.5406 46.5844C55.7673 45.811 54.7187 45.3761 53.625 45.375H24.75C23.6563 45.3761 22.6077 45.811 21.8344 46.5844C21.061 47.3577 20.6261 48.4063 20.625 49.5V51.5625H12.375V35.0625H20.625V37.125C20.6261 38.2187 21.061 39.2673 21.8344 40.0406C22.6077 40.814 23.6563 41.2489 24.75 41.25H53.625C54.7187 41.2489 55.7673 40.814 56.5406 40.0406C57.314 39.2673 57.7489 38.2187 57.75 37.125V28.875C57.7489 27.7813 57.314 26.7327 56.5406 25.9594C55.7673 25.186 54.7187 24.7511 53.625 24.75H24.75C23.6563 24.7511 22.6077 25.186 21.8344 25.9594C21.061 26.7327 20.6261 27.7813 20.625 28.875V30.9375H12.375V14.4375H20.625V16.5C20.6261 17.5937 21.061 18.6423 21.8344 19.4156C22.6077 20.189 23.6563 20.6239 24.75 20.625ZM24.75 8.25H53.625L53.6271 16.5H24.75V8.25ZM24.75 49.5H53.625L53.6271 57.75H24.75V49.5ZM24.75 28.875H53.625L53.6271 37.125H24.75V28.875Z" fill="#084DFF"/>
</svg>
