<svg width="65" height="65" viewBox="0 0 65 65" fill="none" xmlns="http://www.w3.org/2000/svg">
<mask id="mask0_29_157" style="mask-type:alpha" maskUnits="userSpaceOnUse" x="8" y="3" width="49" height="59">
<path d="M29.7917 59.5833C32.7832 59.5833 35.2083 57.1582 35.2083 54.1667C35.2083 51.1751 32.7832 48.75 29.7917 48.75C26.8001 48.75 24.375 51.1751 24.375 54.1667C24.375 57.1582 26.8001 59.5833 29.7917 59.5833Z" fill="white" stroke="white" stroke-width="4"/>
<path d="M35.2082 16.25C38.1997 16.25 40.6248 13.8249 40.6248 10.8333C40.6248 7.84178 38.1997 5.41666 35.2082 5.41666C32.2166 5.41666 29.7915 7.84178 29.7915 10.8333C29.7915 13.8249 32.2166 16.25 35.2082 16.25Z" fill="white" stroke="white" stroke-width="4"/>
<path d="M48.7499 37.9166C51.7415 37.9166 54.1666 35.4915 54.1666 32.5C54.1666 29.5084 51.7415 27.0833 48.7499 27.0833C45.7584 27.0833 43.3333 29.5084 43.3333 32.5C43.3333 35.4915 45.7584 37.9166 48.7499 37.9166Z" fill="white" stroke="white" stroke-width="4"/>
<path d="M16.2499 37.9166C19.2415 37.9166 21.6666 35.4915 21.6666 32.5C21.6666 29.5084 19.2415 27.0833 16.2499 27.0833C13.2584 27.0833 10.8333 29.5084 10.8333 32.5C10.8333 35.4915 13.2584 37.9166 16.2499 37.9166Z" fill="white" stroke="white" stroke-width="4"/>
<path d="M31.1458 14.8958L20.3125 28.4375M43.3333 32.5H21.6667H43.3333Z" stroke="white" stroke-width="4" stroke-linecap="round" stroke-linejoin="round"/>
<path d="M44.6875 36.5625L33.8528 50.1042" stroke="white" stroke-width="4"/>
</mask>
<g mask="url(#mask0_29_157)">
<path d="M0 0H65V65H0V0Z" fill="#084DFF"/>
</g>
</svg>
