<svg width="108" height="108" viewBox="0 0 108 108" fill="none" xmlns="http://www.w3.org/2000/svg">
<path d="M50.625 94.5V67.5H20.25V60.75H50.625V33.75H20.25V94.5H50.625ZM57.375 94.5H87.75V33.75H57.375V60.75H87.75V67.5H57.375V94.5ZM13.5 27H94.5V97.875C94.5 98.7701 94.1444 99.6286 93.5115 100.261C92.8786 100.894 92.0201 101.25 91.125 101.25H16.875C15.9799 101.25 15.1215 100.894 14.4885 100.261C13.8556 99.6286 13.5 98.7701 13.5 97.875V27Z" fill="#084DFF"/>
<path d="M10.125 27H97.875C100.125 27 101.25 28.125 101.25 30.375C101.25 32.625 100.125 33.75 97.875 33.75H10.125C7.875 33.75 6.75 32.625 6.75 30.375C6.75 28.125 7.875 27 10.125 27Z" fill="#084DFF"/>
<path d="M43.875 27C45.6652 27 47.3821 26.2888 48.648 25.023C49.9138 23.7571 50.625 22.0402 50.625 20.25C50.625 18.4598 49.9138 16.7429 48.648 15.477C47.3821 14.2112 45.6652 13.5 43.875 13.5C42.0848 13.5 40.3679 14.2112 39.102 15.477C37.8362 16.7429 37.125 18.4598 37.125 20.25C37.125 22.0402 37.8362 23.7571 39.102 25.023C40.3679 26.2888 42.0848 27 43.875 27ZM43.875 33.75C40.2946 33.75 36.8608 32.3277 34.3291 29.7959C31.7973 27.2642 30.375 23.8304 30.375 20.25C30.375 16.6696 31.7973 13.2358 34.3291 10.7041C36.8608 8.17232 40.2946 6.75 43.875 6.75C47.4554 6.75 50.8892 8.17232 53.4209 10.7041C55.9527 13.2358 57.375 16.6696 57.375 20.25C57.375 23.8304 55.9527 27.2642 53.4209 29.7959C50.8892 32.3277 47.4554 33.75 43.875 33.75Z" fill="#084DFF"/>
<path d="M64.125 27C65.9152 27 67.6321 26.2888 68.898 25.023C70.1638 23.7571 70.875 22.0402 70.875 20.25C70.875 18.4598 70.1638 16.7429 68.898 15.477C67.6321 14.2112 65.9152 13.5 64.125 13.5C62.3348 13.5 60.6179 14.2112 59.352 15.477C58.0862 16.7429 57.375 18.4598 57.375 20.25C57.375 22.0402 58.0862 23.7571 59.352 25.023C60.6179 26.2888 62.3348 27 64.125 27ZM64.125 33.75C60.5446 33.75 57.1108 32.3277 54.5791 29.7959C52.0473 27.2642 50.625 23.8304 50.625 20.25C50.625 16.6696 52.0473 13.2358 54.5791 10.7041C57.1108 8.17232 60.5446 6.75 64.125 6.75C67.7054 6.75 71.1392 8.17232 73.6709 10.7041C76.2027 13.2358 77.625 16.6696 77.625 20.25C77.625 23.8304 76.2027 27.2642 73.6709 29.7959C71.1392 32.3277 67.7054 33.75 64.125 33.75Z" fill="#084DFF"/>
</svg>
